<svg version="1.1" viewBox="0.0 0.0 600.0 371.0" fill="none" stroke="none" stroke-linecap="square" stroke-miterlimit="10" width="600" height="371" xmlns:xlink="http://www.w3.org/1999/xlink" xmlns="http://www.w3.org/2000/svg"><path fill="#ffffff" d="M0 0L600.0 0L600.0 371.0L0 371.0L0 0Z" fill-rule="nonzero"/><path stroke="#333333" stroke-width="1.0" stroke-linecap="butt" d="M52.5 306.5L581.5 306.5" fill-rule="nonzero"/><path stroke="#cccccc" stroke-width="1.0" stroke-linecap="butt" d="M52.5 235.5L581.5 235.5" fill-rule="nonzero"/><path stroke="#cccccc" stroke-width="1.0" stroke-linecap="butt" d="M52.5 165.5L581.5 165.5" fill-rule="nonzero"/><path stroke="#cccccc" stroke-width="1.0" stroke-linecap="butt" d="M52.5 95.5L581.5 95.5" fill-rule="nonzero"/><path stroke="#cccccc" stroke-width="1.0" stroke-linecap="butt" d="M52.5 25.5L581.5 25.5" fill-rule="nonzero"/><clipPath id="id_0"><path d="M52.55 25.55L581.45 25.55L581.45 306.08334L52.55 306.08334L52.55 25.55Z" clip-rule="nonzero"/></clipPath><path stroke="#000000" stroke-width="2.0" stroke-linecap="butt" stroke-opacity="0.0" clip-path="url(#id_0)" d="M121.0 306.0L97.0 306.0L97.0 292.0C97.0 290.89542 97.89543 290.0 99.0 290.0L119.0 290.0C120.10457 290.0 121.0 290.89542 121.0 292.0Z" fill-rule="nonzero"/><path fill="#674ea7" clip-path="url(#id_0)" d="M121.0 306.0L97.0 306.0L97.0 292.0C97.0 290.89542 97.89543 290.0 99.0 290.0L119.0 290.0C120.10457 290.0 121.0 290.89542 121.0 292.0Z" fill-rule="nonzero"/><path stroke="#000000" stroke-width="2.0" stroke-linecap="butt" stroke-opacity="0.0" clip-path="url(#id_0)" d="M242.0 306.0L218.0 306.0L218.0 91.0C218.0 89.89543 218.89543 89.0 220.0 89.0L240.0 89.0C241.10457 89.0 242.0 89.89543 242.0 91.0Z" fill-rule="nonzero"/><path fill="#674ea7" clip-path="url(#id_0)" d="M242.0 306.0L218.0 306.0L218.0 91.0C218.0 89.89543 218.89543 89.0 220.0 89.0L240.0 89.0C241.10457 89.0 242.0 89.89543 242.0 91.0Z" fill-rule="nonzero"/><path stroke="#000000" stroke-width="2.0" stroke-linecap="butt" stroke-opacity="0.0" clip-path="url(#id_0)" d="M364.0 306.0L340.0 306.0L340.0 75.0C340.0 73.89543 340.89542 73.0 342.0 73.0L362.0 73.0C363.10458 73.0 364.0 73.89543 364.0 75.0Z" fill-rule="nonzero"/><path fill="#674ea7" clip-path="url(#id_0)" d="M364.0 306.0L340.0 306.0L340.0 75.0C340.0 73.89543 340.89542 73.0 342.0 73.0L362.0 73.0C363.10458 73.0 364.0 73.89543 364.0 75.0Z" fill-rule="nonzero"/><path stroke="#000000" stroke-width="2.0" stroke-linecap="butt" stroke-opacity="0.0" clip-path="url(#id_0)" d="M485.0 306.0L461.0 306.0L461.0 211.0C461.0 209.89543 461.89542 209.0 463.0 209.0L483.0 209.0C484.10458 209.0 485.0 209.89543 485.0 211.0Z" fill-rule="nonzero"/><path fill="#674ea7" clip-path="url(#id_0)" d="M485.0 306.0L461.0 306.0L461.0 211.0C461.0 209.89543 461.89542 209.0 463.0 209.0L483.0 209.0C484.10458 209.0 485.0 209.89543 485.0 211.0Z" fill-rule="nonzero"/><path stroke="#000000" stroke-width="2.0" stroke-linecap="butt" stroke-opacity="0.0" clip-path="url(#id_0)" d="M147.0 306.0L123.0 306.0L123.0 306.0L147.0 306.0Z" fill-rule="nonzero"/><path fill="#c27ba0" clip-path="url(#id_0)" d="M147.0 306.0L123.0 306.0L123.0 306.0L147.0 306.0Z" fill-rule="nonzero"/><path stroke="#000000" stroke-width="2.0" stroke-linecap="butt" stroke-opacity="0.0" clip-path="url(#id_0)" d="M268.0 306.0L244.0 306.0L244.0 305.0C244.0 304.44772 244.44771 304.0 245.0 304.0L267.0 304.0C267.55228 304.0 268.0 304.44772 268.0 305.0Z" fill-rule="nonzero"/><path fill="#c27ba0" clip-path="url(#id_0)" d="M268.0 306.0L244.0 306.0L244.0 305.0C244.0 304.44772 244.44771 304.0 245.0 304.0L267.0 304.0C267.55228 304.0 268.0 304.44772 268.0 305.0Z" fill-rule="nonzero"/><path stroke="#000000" stroke-width="2.0" stroke-linecap="butt" stroke-opacity="0.0" clip-path="url(#id_0)" d="M390.0 306.0L366.0 306.0L366.0 306.0L390.0 306.0Z" fill-rule="nonzero"/><path fill="#c27ba0" clip-path="url(#id_0)" d="M390.0 306.0L366.0 306.0L366.0 306.0L390.0 306.0Z" fill-rule="nonzero"/><path stroke="#000000" stroke-width="2.0" stroke-linecap="butt" stroke-opacity="0.0" clip-path="url(#id_0)" d="M511.0 306.0L487.0 306.0L487.0 306.0C487.0 306.0 487.0 306.0 487.0 306.0L511.0 306.0C511.0 306.0 511.0 306.0 511.0 306.0Z" fill-rule="nonzero"/><path fill="#c27ba0" clip-path="url(#id_0)" d="M511.0 306.0L487.0 306.0L487.0 306.0C487.0 306.0 487.0 306.0 487.0 306.0L511.0 306.0C511.0 306.0 511.0 306.0 511.0 306.0Z" fill-rule="nonzero"/><path stroke="#000000" stroke-width="2.0" stroke-linecap="butt" stroke-opacity="0.0" clip-path="url(#id_0)" d="M173.0 306.0L149.0 306.0L149.0 304.0C149.0 302.89542 149.89543 302.0 151.0 302.0L171.0 302.0C172.10457 302.0 173.0 302.89542 173.0 304.0Z" fill-rule="nonzero"/><path fill="#ff6d01" clip-path="url(#id_0)" d="M173.0 306.0L149.0 306.0L149.0 304.0C149.0 302.89542 149.89543 302.0 151.0 302.0L171.0 302.0C172.10457 302.0 173.0 302.89542 173.0 304.0Z" fill-rule="nonzero"/><path stroke="#000000" stroke-width="2.0" stroke-linecap="butt" stroke-opacity="0.0" clip-path="url(#id_0)" d="M294.0 306.0L270.0 306.0L270.0 185.0C270.0 183.89543 270.89542 183.0 272.0 183.0L292.0 183.0C293.10458 183.0 294.0 183.89543 294.0 185.0Z" fill-rule="nonzero"/><path fill="#ff6d01" clip-path="url(#id_0)" d="M294.0 306.0L270.0 306.0L270.0 185.0C270.0 183.89543 270.89542 183.0 272.0 183.0L292.0 183.0C293.10458 183.0 294.0 183.89543 294.0 185.0Z" fill-rule="nonzero"/><path stroke="#000000" stroke-width="2.0" stroke-linecap="butt" stroke-opacity="0.0" clip-path="url(#id_0)" d="M416.0 306.0L392.0 306.0L392.0 277.0C392.0 275.89542 392.89542 275.0 394.0 275.0L414.0 275.0C415.10458 275.0 416.0 275.89542 416.0 277.0Z" fill-rule="nonzero"/><path fill="#ff6d01" clip-path="url(#id_0)" d="M416.0 306.0L392.0 306.0L392.0 277.0C392.0 275.89542 392.89542 275.0 394.0 275.0L414.0 275.0C415.10458 275.0 416.0 275.89542 416.0 277.0Z" fill-rule="nonzero"/><path stroke="#000000" stroke-width="2.0" stroke-linecap="butt" stroke-opacity="0.0" clip-path="url(#id_0)" d="M537.0 306.0L513.0 306.0L513.0 262.0C513.0 260.89542 513.89545 260.0 515.0 260.0L535.0 260.0C536.10455 260.0 537.0 260.89542 537.0 262.0Z" fill-rule="nonzero"/><path fill="#ff6d01" clip-path="url(#id_0)" d="M537.0 306.0L513.0 306.0L513.0 262.0C513.0 260.89542 513.89545 260.0 515.0 260.0L535.0 260.0C536.10455 260.0 537.0 260.89542 537.0 262.0Z" fill-rule="nonzero"/><path fill="#000000" d="M40.05 305.84897Q40.05 304.31772 40.3625 303.39584Q40.675 302.45834 41.284374 301.95834Q41.909374 301.45834 42.846874 301.45834Q43.534374 301.45834 44.05 301.7396Q44.58125 302.02084 44.925 302.5521Q45.26875 303.06772 45.45625 303.81772Q45.64375 304.56772 45.64375 305.84897Q45.64375 307.3646 45.33125 308.28647Q45.034374 309.20834 44.409374 309.72397Q43.8 310.22397 42.846874 310.22397Q41.6125 310.22397 40.89375 309.33334Q40.05 308.27084 40.05 305.84897ZM41.128124 305.84897Q41.128124 307.95834 41.628124 308.66147Q42.128124 309.3646 42.846874 309.3646Q43.58125 309.3646 44.065624 308.66147Q44.565624 307.95834 44.565624 305.84897Q44.565624 303.72397 44.065624 303.03647Q43.58125 302.33334 42.83125 302.33334Q42.1125 302.33334 41.675 302.94272Q41.128124 303.72397 41.128124 305.84897Z" fill-rule="nonzero"/><path fill="#000000" d="M31.596874 238.93437L31.596874 239.95L25.909374 239.95Q25.909374 239.575 26.034374 239.21562Q26.253124 238.6375 26.721874 238.075Q27.20625 237.5125 28.1125 236.77812Q29.51875 235.62187 30.003124 234.95Q30.503124 234.27812 30.503124 233.68437Q30.503124 233.05937 30.05 232.6375Q29.596874 232.2 28.878124 232.2Q28.1125 232.2 27.659374 232.65312Q27.20625 233.10625 27.190624 233.91875L26.1125 233.80937Q26.221874 232.59062 26.940624 231.96562Q27.675 231.325 28.909374 231.325Q30.14375 231.325 30.8625 232.0125Q31.58125 232.7 31.58125 233.71562Q31.58125 234.23125 31.3625 234.73125Q31.159374 235.21562 30.659374 235.77812Q30.175 236.325 29.05 237.27812Q28.096874 238.075 27.815624 238.37187Q27.55 238.65312 27.378124 238.93437L31.596874 238.93437ZM33.05 237.7L34.159374 237.60625Q34.284374 238.41875 34.721874 238.825Q35.175 239.23125 35.815624 239.23125Q36.565624 239.23125 37.096874 238.65312Q37.628124 238.075 37.628124 237.1375Q37.628124 236.23125 37.1125 235.71562Q36.6125 235.18437 35.784374 235.18437Q35.284374 235.18437 34.8625 235.41875Q34.45625 235.65312 34.221874 236.0125L33.2375 235.8875L34.065624 231.48125L38.346874 231.48125L38.346874 232.48125L34.909374 232.48125L34.45625 234.79375Q35.221874 234.24687 36.065624 234.24687Q37.190624 234.24687 37.95625 235.02812Q38.7375 235.80937 38.7375 237.04375Q38.7375 238.2 38.065624 239.05937Q37.2375 240.09062 35.815624 240.09062Q34.64375 240.09062 33.89375 239.43437Q33.159374 238.77812 33.05 237.7ZM40.05 235.71562Q40.05 234.18437 40.3625 233.2625Q40.675 232.325 41.284374 231.825Q41.909374 231.325 42.846874 231.325Q43.534374 231.325 44.05 231.60625Q44.58125 231.8875 44.925 232.41875Q45.26875 232.93437 45.45625 233.68437Q45.64375 234.43437 45.64375 235.71562Q45.64375 237.23125 45.33125 238.15312Q45.034374 239.075 44.409374 239.59062Q43.8 240.09062 42.846874 240.09062Q41.6125 240.09062 40.89375 239.2Q40.05 238.1375 40.05 235.71562ZM41.128124 235.71562Q41.128124 237.825 41.628124 238.52812Q42.128124 239.23125 42.846874 239.23125Q43.58125 239.23125 44.065624 238.52812Q44.565624 237.825 44.565624 235.71562Q44.565624 233.59062 44.065624 232.90312Q43.58125 232.2 42.83125 232.2Q42.1125 232.2 41.675 232.80937Q41.128124 233.59062 41.128124 235.71562Z" fill-rule="nonzero"/><path fill="#000000" d="M26.05 167.56667L27.159374 167.47292Q27.284374 168.28542 27.721874 168.69167Q28.175 169.09792 28.815624 169.09792Q29.565624 169.09792 30.096874 168.51979Q30.628124 167.94167 30.628124 167.00417Q30.628124 166.09792 30.1125 165.58229Q29.6125 165.05104 28.784374 165.05104Q28.284374 165.05104 27.8625 165.28542Q27.45625 165.51979 27.221874 165.87917L26.2375 165.75417L27.065624 161.34792L31.346874 161.34792L31.346874 162.34792L27.909374 162.34792L27.45625 164.66042Q28.221874 164.11354 29.065624 164.11354Q30.190624 164.11354 30.95625 164.89479Q31.7375 165.67604 31.7375 166.91042Q31.7375 168.06667 31.065624 168.92604Q30.2375 169.95729 28.815624 169.95729Q27.64375 169.95729 26.89375 169.30104Q26.159374 168.64479 26.05 167.56667ZM33.05 165.58229Q33.05 164.05104 33.3625 163.12917Q33.675 162.19167 34.284374 161.69167Q34.909374 161.19167 35.846874 161.19167Q36.534374 161.19167 37.05 161.47292Q37.58125 161.75417 37.925 162.28542Q38.26875 162.80104 38.45625 163.55104Q38.64375 164.30104 38.64375 165.58229Q38.64375 167.09792 38.33125 168.01979Q38.034374 168.94167 37.409374 169.45729Q36.8 169.95729 35.846874 169.95729Q34.6125 169.95729 33.89375 169.06667Q33.05 168.00417 33.05 165.58229ZM34.128124 165.58229Q34.128124 167.69167 34.628124 168.39479Q35.128124 169.09792 35.846874 169.09792Q36.58125 169.09792 37.065624 168.39479Q37.565624 167.69167 37.565624 165.58229Q37.565624 163.45729 37.065624 162.76979Q36.58125 162.06667 35.83125 162.06667Q35.1125 162.06667 34.675 162.67604Q34.128124 163.45729 34.128124 165.58229ZM40.05 165.58229Q40.05 164.05104 40.3625 163.12917Q40.675 162.19167 41.284374 161.69167Q41.909374 161.19167 42.846874 161.19167Q43.534374 161.19167 44.05 161.47292Q44.58125 161.75417 44.925 162.28542Q45.26875 162.80104 45.45625 163.55104Q45.64375 164.30104 45.64375 165.58229Q45.64375 167.09792 45.33125 168.01979Q45.034374 168.94167 44.409374 169.45729Q43.8 169.95729 42.846874 169.95729Q41.6125 169.95729 40.89375 169.06667Q40.05 168.00417 40.05 165.58229ZM41.128124 165.58229Q41.128124 167.69167 41.628124 168.39479Q42.128124 169.09792 42.846874 169.09792Q43.58125 169.09792 44.065624 168.39479Q44.565624 167.69167 44.565624 165.58229Q44.565624 163.45729 44.065624 162.76979Q43.58125 162.06667 42.83125 162.06667Q42.1125 162.06667 41.675 162.67604Q41.128124 163.45729 41.128124 165.58229Z" fill-rule="nonzero"/><path fill="#000000" d="M26.1125 92.214584L26.1125 91.19896L31.675 91.19896L31.675 92.027084Q30.8625 92.902084 30.05 94.35521Q29.253124 95.79271 28.815624 97.32396Q28.4875 98.402084 28.409374 99.683334L27.315624 99.683334Q27.33125 98.66771 27.70625 97.23021Q28.096874 95.79271 28.8 94.464584Q29.51875 93.13646 30.33125 92.214584L26.1125 92.214584ZM33.05 97.433334L34.159374 97.339584Q34.284374 98.152084 34.721874 98.558334Q35.175 98.964584 35.815624 98.964584Q36.565624 98.964584 37.096874 98.38646Q37.628124 97.808334 37.628124 96.870834Q37.628124 95.964584 37.1125 95.44896Q36.6125 94.91771 35.784374 94.91771Q35.284374 94.91771 34.8625 95.152084Q34.45625 95.38646 34.221874 95.745834L33.2375 95.620834L34.065624 91.214584L38.346874 91.214584L38.346874 92.214584L34.909374 92.214584L34.45625 94.527084Q35.221874 93.98021 36.065624 93.98021Q37.190624 93.98021 37.95625 94.76146Q38.7375 95.54271 38.7375 96.777084Q38.7375 97.933334 38.065624 98.79271Q37.2375 99.82396 35.815624 99.82396Q34.64375 99.82396 33.89375 99.16771Q33.159374 98.51146 33.05 97.433334ZM40.05 95.44896Q40.05 93.91771 40.3625 92.995834Q40.675 92.058334 41.284374 91.558334Q41.909374 91.058334 42.846874 91.058334Q43.534374 91.058334 44.05 91.339584Q44.58125 91.620834 44.925 92.152084Q45.26875 92.66771 45.45625 93.41771Q45.64375 94.16771 45.64375 95.44896Q45.64375 96.964584 45.33125 97.88646Q45.034374 98.808334 44.409374 99.32396Q43.8 99.82396 42.846874 99.82396Q41.6125 99.82396 40.89375 98.933334Q40.05 97.870834 40.05 95.44896ZM41.128124 95.44896Q41.128124 97.558334 41.628124 98.26146Q42.128124 98.964584 42.846874 98.964584Q43.58125 98.964584 44.065624 98.26146Q44.565624 97.558334 44.565624 95.44896Q44.565624 93.32396 44.065624 92.63646Q43.58125 91.933334 42.83125 91.933334Q42.1125 91.933334 41.675 92.54271Q41.128124 93.32396 41.128124 95.44896Z" fill-rule="nonzero"/><path fill="#000000" d="M23.01875 29.55L21.971874 29.55L21.971874 22.83125Q21.58125 23.190624 20.95625 23.565624Q20.346874 23.925 19.8625 24.096874L19.8625 23.08125Q20.7375 22.659374 21.39375 22.08125Q22.065624 21.4875 22.346874 20.925L23.01875 20.925L23.01875 29.55ZM26.05 25.315624Q26.05 23.784374 26.3625 22.8625Q26.675 21.925 27.284374 21.425Q27.909374 20.925 28.846874 20.925Q29.534374 20.925 30.05 21.20625Q30.58125 21.4875 30.925 22.01875Q31.26875 22.534374 31.45625 23.284374Q31.64375 24.034374 31.64375 25.315624Q31.64375 26.83125 31.33125 27.753124Q31.034374 28.675 30.409374 29.190624Q29.8 29.690624 28.846874 29.690624Q27.6125 29.690624 26.89375 28.8Q26.05 27.7375 26.05 25.315624ZM27.128124 25.315624Q27.128124 27.425 27.628124 28.128124Q28.128124 28.83125 28.846874 28.83125Q29.58125 28.83125 30.065624 28.128124Q30.565624 27.425 30.565624 25.315624Q30.565624 23.190624 30.065624 22.503124Q29.58125 21.8 28.83125 21.8Q28.1125 21.8 27.675 22.409374Q27.128124 23.190624 27.128124 25.315624ZM33.05 25.315624Q33.05 23.784374 33.3625 22.8625Q33.675 21.925 34.284374 21.425Q34.909374 20.925 35.846874 20.925Q36.534374 20.925 37.05 21.20625Q37.58125 21.4875 37.925 22.01875Q38.26875 22.534374 38.45625 23.284374Q38.64375 24.034374 38.64375 25.315624Q38.64375 26.83125 38.33125 27.753124Q38.034374 28.675 37.409374 29.190624Q36.8 29.690624 35.846874 29.690624Q34.6125 29.690624 33.89375 28.8Q33.05 27.7375 33.05 25.315624ZM34.128124 25.315624Q34.128124 27.425 34.628124 28.128124Q35.128124 28.83125 35.846874 28.83125Q36.58125 28.83125 37.065624 28.128124Q37.565624 27.425 37.565624 25.315624Q37.565624 23.190624 37.065624 22.503124Q36.58125 21.8 35.83125 21.8Q35.1125 21.8 34.675 22.409374Q34.128124 23.190624 34.128124 25.315624ZM40.05 25.315624Q40.05 23.784374 40.3625 22.8625Q40.675 21.925 41.284374 21.425Q41.909374 20.925 42.846874 20.925Q43.534374 20.925 44.05 21.20625Q44.58125 21.4875 44.925 22.01875Q45.26875 22.534374 45.45625 23.284374Q45.64375 24.034374 45.64375 25.315624Q45.64375 26.83125 45.33125 27.753124Q45.034374 28.675 44.409374 29.190624Q43.8 29.690624 42.846874 29.690624Q41.6125 29.690624 40.89375 28.8Q40.05 27.7375 40.05 25.315624ZM41.128124 25.315624Q41.128124 27.425 41.628124 28.128124Q42.128124 28.83125 42.846874 28.83125Q43.58125 28.83125 44.065624 28.128124Q44.565624 27.425 44.565624 25.315624Q44.565624 23.190624 44.065624 22.503124Q43.58125 21.8 42.83125 21.8Q42.1125 21.8 41.675 22.409374Q41.128124 23.190624 41.128124 25.315624Z" fill-rule="nonzero"/><path fill="#000000" d="M100.05819 323.08334L100.05819 314.4896L103.87069 314.4896Q105.02694 314.4896 105.62069 314.72397Q106.21444 314.95834 106.573814 315.5521Q106.93319 316.13022 106.93319 316.83334Q106.93319 317.75522 106.33944 318.38022Q105.74569 319.00522 104.511314 319.1771Q104.96444 319.39584 105.198814 319.59897Q105.698814 320.0521 106.136314 320.7396L107.636314 323.08334L106.198814 323.08334L105.073814 321.3021Q104.573814 320.52084 104.24569 320.1146Q103.93319 319.70834 103.667564 319.5521Q103.417564 319.38022 103.15194 319.3021Q102.96444 319.27084 102.52694 319.27084L101.198814 319.27084L101.198814 323.08334L100.05819 323.08334ZM101.198814 318.28647L103.65194 318.28647Q104.417564 318.28647 104.855064 318.13022Q105.30819 317.95834 105.52694 317.6146Q105.761314 317.25522 105.761314 316.83334Q105.761314 316.22397 105.30819 315.83334Q104.87069 315.44272 103.917564 315.44272L101.198814 315.44272L101.198814 318.28647ZM113.167564 321.08334L114.261314 321.20834Q114.011314 322.16147 113.30819 322.69272Q112.605064 323.22397 111.52694 323.22397Q110.167564 323.22397 109.355064 322.38022Q108.55819 321.53647 108.55819 320.02084Q108.55819 318.45834 109.37069 317.59897Q110.18319 316.72397 111.46444 316.72397Q112.71444 316.72397 113.49569 317.56772Q114.292564 318.41147 114.292564 319.95834Q114.292564 320.0521 114.292564 320.2396L109.65194 320.2396Q109.71444 321.27084 110.230064 321.81772Q110.74569 322.34897 111.52694 322.34897Q112.105064 322.34897 112.511314 322.0521Q112.93319 321.7396 113.167564 321.08334ZM109.71444 319.38022L113.18319 319.38022Q113.12069 318.58334 112.792564 318.19272Q112.27694 317.58334 111.480064 317.58334Q110.74569 317.58334 110.24569 318.06772Q109.761314 318.5521 109.71444 319.38022ZM115.917564 325.47397L115.917564 316.8646L116.87069 316.8646L116.87069 317.66147Q117.21444 317.19272 117.636314 316.95834Q118.073814 316.72397 118.68319 316.72397Q119.480064 316.72397 120.08944 317.13022Q120.698814 317.53647 120.99569 318.28647Q121.30819 319.03647 121.30819 319.9271Q121.30819 320.88022 120.96444 321.64584Q120.636314 322.41147 119.980064 322.81772Q119.323814 323.22397 118.605064 323.22397Q118.073814 323.22397 117.65194 323.00522Q117.230064 322.77084 116.96444 322.44272L116.96444 325.47397L115.917564 325.47397ZM116.87069 320.00522Q116.87069 321.20834 117.355064 321.78647Q117.83944 322.34897 118.52694 322.34897Q119.230064 322.34897 119.730064 321.75522Q120.230064 321.16147 120.230064 319.91147Q120.230064 318.72397 119.74569 318.14584Q119.261314 317.5521 118.573814 317.5521Q117.90194 317.5521 117.386314 318.1771Q116.87069 318.8021 116.87069 320.00522ZM122.52694 319.97397Q122.52694 318.2396 123.480064 317.41147Q124.27694 316.72397 125.43319 316.72397Q126.71444 316.72397 127.52694 317.56772Q128.35507 318.39584 128.35507 319.88022Q128.35507 321.08334 127.99569 321.77084Q127.636314 322.45834 126.93319 322.84897Q126.24569 323.22397 125.43319 323.22397Q124.136314 323.22397 123.323814 322.39584Q122.52694 321.5521 122.52694 319.97397ZM123.605064 319.97397Q123.605064 321.16147 124.12069 321.75522Q124.65194 322.34897 125.43319 322.34897Q126.230064 322.34897 126.74569 321.75522Q127.261314 321.16147 127.261314 319.94272Q127.261314 318.78647 126.730064 318.19272Q126.21444 317.59897 125.43319 317.59897Q124.65194 317.59897 124.12069 318.19272Q123.605064 318.77084 123.605064 319.97397ZM129.4957 321.22397L130.52695 321.06772Q130.6207 321.69272 131.01132 322.02084Q131.41757 322.34897 132.15195 322.34897Q132.8707 322.34897 133.21445 322.06772Q133.57382 321.77084 133.57382 321.3646Q133.57382 321.00522 133.26132 320.8021Q133.04257 320.66147 132.1832 320.44272Q131.02695 320.14584 130.57382 319.94272Q130.13632 319.72397 129.90195 319.34897Q129.66757 318.97397 129.66757 318.50522Q129.66757 318.09897 129.85507 317.7396Q130.04257 317.38022 130.3707 317.14584Q130.6207 316.97397 131.04257 316.84897Q131.46445 316.72397 131.96445 316.72397Q132.6832 316.72397 133.23007 316.94272Q133.79257 317.14584 134.0582 317.50522Q134.32382 317.8646 134.41757 318.45834L133.38632 318.59897Q133.32382 318.13022 132.98007 317.8646Q132.65195 317.58334 132.02695 317.58334Q131.3082 317.58334 130.9957 317.83334Q130.6832 318.06772 130.6832 318.39584Q130.6832 318.59897 130.8082 318.75522Q130.94882 318.9271 131.21445 319.03647Q131.3707 319.09897 132.15195 319.3021Q133.27695 319.6146 133.71445 319.8021Q134.15195 319.9896 134.40195 320.34897Q134.65195 320.70834 134.65195 321.25522Q134.65195 321.78647 134.33945 322.25522Q134.04257 322.70834 133.46445 322.97397Q132.88632 323.22397 132.15195 323.22397Q130.9332 323.22397 130.29257 322.72397Q129.66757 322.20834 129.4957 321.22397ZM136.91757 315.70834L136.91757 314.4896L137.98007 314.4896L137.98007 315.70834L136.91757 315.70834ZM136.91757 323.08334L136.91757 316.8646L137.98007 316.8646L137.98007 323.08334L136.91757 323.08334ZM142.21445 322.14584L142.3707 323.06772Q141.91757 323.16147 141.57382 323.16147Q140.9957 323.16147 140.6832 322.9896Q140.3707 322.8021 140.23007 322.50522Q140.10507 322.20834 140.10507 321.25522L140.10507 317.6771L139.33945 317.6771L139.33945 316.8646L140.10507 316.8646L140.10507 315.31772L141.15195 314.69272L141.15195 316.8646L142.21445 316.8646L142.21445 317.6771L141.15195 317.6771L141.15195 321.31772Q141.15195 321.77084 141.19882 321.89584Q141.26132 322.02084 141.38632 322.09897Q141.51132 322.1771 141.7457 322.1771Q141.9332 322.1771 142.21445 322.14584ZM142.52695 319.97397Q142.52695 318.2396 143.48007 317.41147Q144.27695 316.72397 145.4332 316.72397Q146.71445 316.72397 147.52695 317.56772Q148.35507 318.39584 148.35507 319.88022Q148.35507 321.08334 147.9957 321.77084Q147.63632 322.45834 146.9332 322.84897Q146.2457 323.22397 145.4332 323.22397Q144.13632 323.22397 143.32382 322.39584Q142.52695 321.5521 142.52695 319.97397ZM143.60507 319.97397Q143.60507 321.16147 144.1207 321.75522Q144.65195 322.34897 145.4332 322.34897Q146.23007 322.34897 146.7457 321.75522Q147.26132 321.16147 147.26132 319.94272Q147.26132 318.78647 146.73007 318.19272Q146.21445 317.59897 145.4332 317.59897Q144.65195 317.59897 144.1207 318.19272Q143.60507 318.77084 143.60507 319.97397ZM149.90195 323.08334L149.90195 316.8646L150.85507 316.8646L150.85507 317.8021Q151.21445 317.14584 151.51132 316.94272Q151.82382 316.72397 152.19882 316.72397Q152.73007 316.72397 153.27695 317.0521L152.91757 318.03647Q152.52695 317.8021 152.15195 317.8021Q151.79257 317.8021 151.51132 318.02084Q151.2457 318.22397 151.13632 318.59897Q150.94882 319.16147 150.94882 319.81772L150.94882 323.08334L149.90195 323.08334ZM153.91757 315.70834L153.91757 314.4896L154.98007 314.4896L154.98007 315.70834L153.91757 315.70834ZM153.91757 323.08334L153.91757 316.8646L154.98007 316.8646L154.98007 323.08334L153.91757 323.08334ZM161.16757 321.08334L162.26132 321.20834Q162.01132 322.16147 161.3082 322.69272Q160.60507 323.22397 159.52695 323.22397Q158.16757 323.22397 157.35507 322.38022Q156.5582 321.53647 156.5582 320.02084Q156.5582 318.45834 157.3707 317.59897Q158.1832 316.72397 159.46445 316.72397Q160.71445 316.72397 161.4957 317.56772Q162.29257 318.41147 162.29257 319.95834Q162.29257 320.0521 162.29257 320.2396L157.65195 320.2396Q157.71445 321.27084 158.23007 321.81772Q158.7457 322.34897 159.52695 322.34897Q160.10507 322.34897 160.51132 322.0521Q160.9332 321.7396 161.16757 321.08334ZM157.71445 319.38022L161.1832 319.38022Q161.1207 318.58334 160.79257 318.19272Q160.27695 317.58334 159.48007 317.58334Q158.7457 317.58334 158.2457 318.06772Q157.76132 318.5521 157.71445 319.38022ZM163.4957 321.22397L164.52695 321.06772Q164.6207 321.69272 165.01132 322.02084Q165.41757 322.34897 166.15195 322.34897Q166.8707 322.34897 167.21445 322.06772Q167.57382 321.77084 167.57382 321.3646Q167.57382 321.00522 167.26132 320.8021Q167.04257 320.66147 166.1832 320.44272Q165.02695 320.14584 164.57382 319.94272Q164.13632 319.72397 163.90195 319.34897Q163.66757 318.97397 163.66757 318.50522Q163.66757 318.09897 163.85507 317.7396Q164.04257 317.38022 164.3707 317.14584Q164.6207 316.97397 165.04257 316.84897Q165.46445 316.72397 165.96445 316.72397Q166.6832 316.72397 167.23007 316.94272Q167.79257 317.14584 168.0582 317.50522Q168.32382 317.8646 168.41757 318.45834L167.38632 318.59897Q167.32382 318.13022 166.98007 317.8646Q166.65195 317.58334 166.02695 317.58334Q165.3082 317.58334 164.9957 317.83334Q164.6832 318.06772 164.6832 318.39584Q164.6832 318.59897 164.8082 318.75522Q164.94882 318.9271 165.21445 319.03647Q165.3707 319.09897 166.15195 319.3021Q167.27695 319.6146 167.71445 319.8021Q168.15195 319.9896 168.40195 320.34897Q168.65195 320.70834 168.65195 321.25522Q168.65195 321.78647 168.33945 322.25522Q168.04257 322.70834 167.46445 322.97397Q166.88632 323.22397 166.15195 323.22397Q164.9332 323.22397 164.29257 322.72397Q163.66757 322.20834 163.4957 321.22397Z" fill-rule="nonzero"/><path fill="#000000" d="M229.7694 320.06772L230.8944 320.3646Q230.53502 321.75522 229.61314 322.4896Q228.69127 323.22397 227.34752 323.22397Q225.9569 323.22397 225.0819 322.66147Q224.2069 322.09897 223.75377 321.03647Q223.30064 319.95834 223.30064 318.72397Q223.30064 317.38022 223.81627 316.38022Q224.3319 315.38022 225.2694 314.8646Q226.22252 314.34897 227.36314 314.34897Q228.6444 314.34897 229.5194 315.00522Q230.41002 315.66147 230.75377 316.84897L229.62877 317.1146Q229.3319 316.1771 228.75377 315.75522Q228.19127 315.31772 227.3319 315.31772Q226.34752 315.31772 225.67564 315.8021Q225.0194 316.27084 224.73814 317.06772Q224.47252 317.8646 224.47252 318.72397Q224.47252 319.81772 224.78502 320.63022Q225.11314 321.44272 225.78502 321.84897Q226.4569 322.25522 227.25377 322.25522Q228.2069 322.25522 228.86314 321.70834Q229.53502 321.16147 229.7694 320.06772ZM232.11314 319.97397Q232.11314 318.2396 233.06627 317.41147Q233.86314 316.72397 235.0194 316.72397Q236.30064 316.72397 237.11314 317.56772Q237.94127 318.39584 237.94127 319.88022Q237.94127 321.08334 237.5819 321.77084Q237.22252 322.45834 236.5194 322.84897Q235.8319 323.22397 235.0194 323.22397Q233.72252 323.22397 232.91002 322.39584Q232.11314 321.5521 232.11314 319.97397ZM233.19127 319.97397Q233.19127 321.16147 233.7069 321.75522Q234.23814 322.34897 235.0194 322.34897Q235.81627 322.34897 236.3319 321.75522Q236.84752 321.16147 236.84752 319.94272Q236.84752 318.78647 236.31627 318.19272Q235.80064 317.59897 235.0194 317.59897Q234.23814 317.59897 233.7069 318.19272Q233.19127 318.77084 233.19127 319.97397ZM243.53502 323.08334L243.53502 322.3021Q242.94127 323.22397 241.80064 323.22397Q241.05064 323.22397 240.42564 322.81772Q239.80064 322.39584 239.4569 321.66147Q239.11314 320.9271 239.11314 319.97397Q239.11314 319.0521 239.42564 318.28647Q239.73814 317.52084 240.36314 317.13022Q240.98814 316.72397 241.75377 316.72397Q242.31627 316.72397 242.75377 316.95834Q243.19127 317.19272 243.47252 317.56772L243.47252 314.4896L244.5194 314.4896L244.5194 323.08334L243.53502 323.08334ZM240.2069 319.97397Q240.2069 321.1771 240.7069 321.77084Q241.2069 322.34897 241.8944 322.34897Q242.5819 322.34897 243.06627 321.78647Q243.55064 321.22397 243.55064 320.06772Q243.55064 318.78647 243.05064 318.19272Q242.56627 317.59897 241.84752 317.59897Q241.1444 317.59897 240.67564 318.1771Q240.2069 318.7396 240.2069 319.97397ZM250.75377 321.08334L251.84752 321.20834Q251.59752 322.16147 250.8944 322.69272Q250.19127 323.22397 249.11314 323.22397Q247.75377 323.22397 246.94127 322.38022Q246.1444 321.53647 246.1444 320.02084Q246.1444 318.45834 246.9569 317.59897Q247.7694 316.72397 249.05064 316.72397Q250.30064 316.72397 251.0819 317.56772Q251.87877 318.41147 251.87877 319.95834Q251.87877 320.0521 251.87877 320.2396L247.23814 320.2396Q247.30064 321.27084 247.81627 321.81772Q248.3319 322.34897 249.11314 322.34897Q249.69127 322.34897 250.09752 322.0521Q250.5194 321.7396 250.75377 321.08334ZM247.30064 319.38022L250.7694 319.38022Q250.7069 318.58334 250.37877 318.19272Q249.86314 317.58334 249.06627 317.58334Q248.3319 317.58334 247.8319 318.06772Q247.34752 318.5521 247.30064 319.38022ZM258.5194 325.6146Q257.6444 324.50522 257.03503 323.03647Q256.44128 321.5521 256.44128 319.97397Q256.44128 318.58334 256.87878 317.3021Q257.41003 315.81772 258.5194 314.34897L259.2694 314.34897Q258.56628 315.56772 258.3319 316.08334Q257.97253 316.89584 257.7694 317.77084Q257.5194 318.8646 257.5194 319.97397Q257.5194 322.8021 259.2694 325.6146L258.5194 325.6146ZM259.80066 323.08334L262.06628 319.84897L259.97253 316.8646L261.28503 316.8646L262.23816 318.31772Q262.50378 318.7396 262.67566 319.02084Q262.92566 318.63022 263.1444 318.33334L264.19128 316.8646L265.4569 316.8646L263.30066 319.78647L265.61316 323.08334L264.3319 323.08334L263.05066 321.14584L262.7069 320.63022L261.06628 323.08334L259.80066 323.08334ZM269.17566 323.08334L268.12878 323.08334L268.12878 316.3646Q267.73816 316.72397 267.11316 317.09897Q266.50378 317.45834 266.0194 317.63022L266.0194 316.6146Q266.8944 316.19272 267.55066 315.6146Q268.22253 315.02084 268.50378 314.45834L269.17566 314.45834L269.17566 323.08334ZM272.2069 318.84897Q272.2069 317.31772 272.5194 316.39584Q272.8319 315.45834 273.44128 314.95834Q274.06628 314.45834 275.00378 314.45834Q275.69128 314.45834 276.2069 314.7396Q276.73816 315.02084 277.0819 315.5521Q277.42566 316.06772 277.61316 316.81772Q277.80066 317.56772 277.80066 318.84897Q277.80066 320.3646 277.48816 321.28647Q277.19128 322.20834 276.56628 322.72397Q275.9569 323.22397 275.00378 323.22397Q273.7694 323.22397 273.05066 322.33334Q272.2069 321.27084 272.2069 318.84897ZM273.28503 318.84897Q273.28503 320.95834 273.78503 321.66147Q274.28503 322.3646 275.00378 322.3646Q275.73816 322.3646 276.22253 321.66147Q276.72253 320.95834 276.72253 318.84897Q276.72253 316.72397 276.22253 316.03647Q275.73816 315.33334 274.98816 315.33334Q274.2694 315.33334 273.8319 315.94272Q273.28503 316.72397 273.28503 318.84897ZM279.2069 318.84897Q279.2069 317.31772 279.5194 316.39584Q279.8319 315.45834 280.44128 314.95834Q281.06628 314.45834 282.00378 314.45834Q282.69128 314.45834 283.2069 314.7396Q283.73816 315.02084 284.0819 315.5521Q284.42566 316.06772 284.61316 316.81772Q284.80066 317.56772 284.80066 318.84897Q284.80066 320.3646 284.48816 321.28647Q284.19128 322.20834 283.56628 322.72397Q282.9569 323.22397 282.00378 323.22397Q280.7694 323.22397 280.05066 322.33334Q279.2069 321.27084 279.2069 318.84897ZM280.28503 318.84897Q280.28503 320.95834 280.78503 321.66147Q281.28503 322.3646 282.00378 322.3646Q282.73816 322.3646 283.22253 321.66147Q283.72253 320.95834 283.72253 318.84897Q283.72253 316.72397 283.22253 316.03647Q282.73816 315.33334 281.98816 315.33334Q281.2694 315.33334 280.8319 315.94272Q280.28503 316.72397 280.28503 318.84897ZM287.19128 325.6146L286.44128 325.6146Q288.19128 322.8021 288.19128 319.97397Q288.19128 318.88022 287.94128 317.78647Q287.73816 316.91147 287.37878 316.09897Q287.1444 315.58334 286.44128 314.34897L287.19128 314.34897Q288.28503 315.81772 288.81628 317.3021Q289.2694 318.58334 289.2694 319.97397Q289.2694 321.5521 288.66003 323.03647Q288.05066 324.50522 287.19128 325.6146Z" fill-rule="nonzero"/><path fill="#000000" d="M359.3556 320.06772L360.4806 320.3646Q360.12122 321.75522 359.19934 322.4896Q358.27747 323.22397 356.93372 323.22397Q355.5431 323.22397 354.6681 322.66147Q353.7931 322.09897 353.33997 321.03647Q352.88684 319.95834 352.88684 318.72397Q352.88684 317.38022 353.40247 316.38022Q353.9181 315.38022 354.8556 314.8646Q355.80872 314.34897 356.94934 314.34897Q358.2306 314.34897 359.1056 315.00522Q359.99622 315.66147 360.33997 316.84897L359.21497 317.1146Q358.9181 316.1771 358.33997 315.75522Q357.77747 315.31772 356.9181 315.31772Q355.93372 315.31772 355.26184 315.8021Q354.6056 316.27084 354.32434 317.06772Q354.05872 317.8646 354.05872 318.72397Q354.05872 319.81772 354.37122 320.63022Q354.69934 321.44272 355.37122 321.84897Q356.0431 322.25522 356.83997 322.25522Q357.7931 322.25522 358.44934 321.70834Q359.12122 321.16147 359.3556 320.06772ZM361.69934 319.97397Q361.69934 318.2396 362.65247 317.41147Q363.44934 316.72397 364.6056 316.72397Q365.88684 316.72397 366.69934 317.56772Q367.52747 318.39584 367.52747 319.88022Q367.52747 321.08334 367.1681 321.77084Q366.80872 322.45834 366.1056 322.84897Q365.4181 323.22397 364.6056 323.22397Q363.30872 323.22397 362.49622 322.39584Q361.69934 321.5521 361.69934 319.97397ZM362.77747 319.97397Q362.77747 321.16147 363.2931 321.75522Q363.82434 322.34897 364.6056 322.34897Q365.40247 322.34897 365.9181 321.75522Q366.43372 321.16147 366.43372 319.94272Q366.43372 318.78647 365.90247 318.19272Q365.38684 317.59897 364.6056 317.59897Q363.82434 317.59897 363.2931 318.19272Q362.77747 318.77084 362.77747 319.97397ZM369.08997 323.08334L369.08997 316.8646L370.02747 316.8646L370.02747 317.7396Q370.32434 317.27084 370.80872 317.00522Q371.2931 316.72397 371.9181 316.72397Q372.6056 316.72397 373.0431 317.00522Q373.49622 317.28647 373.6681 317.8021Q374.4181 316.72397 375.58997 316.72397Q376.52747 316.72397 377.01184 317.2396Q377.51184 317.7396 377.51184 318.81772L377.51184 323.08334L376.46497 323.08334L376.46497 319.16147Q376.46497 318.53647 376.3556 318.25522Q376.26184 317.97397 375.99622 317.8021Q375.7306 317.63022 375.3556 317.63022Q374.69934 317.63022 374.26184 318.06772Q373.83997 318.50522 373.83997 319.47397L373.83997 323.08334L372.77747 323.08334L372.77747 319.03647Q372.77747 318.33334 372.51184 317.9896Q372.26184 317.63022 371.68372 317.63022Q371.2306 317.63022 370.8556 317.8646Q370.4806 318.09897 370.30872 318.5521Q370.13684 319.00522 370.13684 319.84897L370.13684 323.08334L369.08997 323.08334ZM380.08997 323.08334L380.08997 316.8646L381.02747 316.8646L381.02747 317.7396Q381.32434 317.27084 381.80872 317.00522Q382.2931 316.72397 382.9181 316.72397Q383.6056 316.72397 384.0431 317.00522Q384.49622 317.28647 384.6681 317.8021Q385.4181 316.72397 386.58997 316.72397Q387.52747 316.72397 388.01184 317.2396Q388.51184 317.7396 388.51184 318.81772L388.51184 323.08334L387.46497 323.08334L387.46497 319.16147Q387.46497 318.53647 387.3556 318.25522Q387.26184 317.97397 386.99622 317.8021Q386.7306 317.63022 386.3556 317.63022Q385.69934 317.63022 385.26184 318.06772Q384.83997 318.50522 384.83997 319.47397L384.83997 323.08334L383.77747 323.08334L383.77747 319.03647Q383.77747 318.33334 383.51184 317.9896Q383.26184 317.63022 382.68372 317.63022Q382.2306 317.63022 381.8556 317.8646Q381.4806 318.09897 381.30872 318.5521Q381.13684 319.00522 381.13684 319.84897L381.13684 323.08334L380.08997 323.08334ZM391.08997 315.70834L391.08997 314.4896L392.15247 314.4896L392.15247 315.70834L391.08997 315.70834ZM391.08997 323.08334L391.08997 316.8646L392.15247 316.8646L392.15247 323.08334L391.08997 323.08334ZM396.38684 322.14584L396.5431 323.06772Q396.08997 323.16147 395.74622 323.16147Q395.1681 323.16147 394.8556 322.9896Q394.5431 322.8021 394.40247 322.50522Q394.27747 322.20834 394.27747 321.25522L394.27747 317.6771L393.51184 317.6771L393.51184 316.8646L394.27747 316.8646L394.27747 315.31772L395.32434 314.69272L395.32434 316.8646L396.38684 316.8646L396.38684 317.6771L395.32434 317.6771L395.32434 321.31772Q395.32434 321.77084 395.37122 321.89584Q395.43372 322.02084 395.55872 322.09897Q395.68372 322.1771 395.9181 322.1771Q396.1056 322.1771 396.38684 322.14584ZM396.6681 321.22397L397.69934 321.06772Q397.7931 321.69272 398.18372 322.02084Q398.58997 322.34897 399.32434 322.34897Q400.0431 322.34897 400.38684 322.06772Q400.74622 321.77084 400.74622 321.3646Q400.74622 321.00522 400.43372 320.8021Q400.21497 320.66147 399.3556 320.44272Q398.19934 320.14584 397.74622 319.94272Q397.30872 319.72397 397.07434 319.34897Q396.83997 318.97397 396.83997 318.50522Q396.83997 318.09897 397.02747 317.7396Q397.21497 317.38022 397.5431 317.14584Q397.7931 316.97397 398.21497 316.84897Q398.63684 316.72397 399.13684 316.72397Q399.8556 316.72397 400.40247 316.94272Q400.96497 317.14584 401.2306 317.50522Q401.49622 317.8646 401.58997 318.45834L400.55872 318.59897Q400.49622 318.13022 400.15247 317.8646Q399.82434 317.58334 399.19934 317.58334Q398.4806 317.58334 398.1681 317.83334Q397.8556 318.06772 397.8556 318.39584Q397.8556 318.59897 397.9806 318.75522Q398.12122 318.9271 398.38684 319.03647Q398.5431 319.09897 399.32434 319.3021Q400.44934 319.6146 400.88684 319.8021Q401.32434 319.9896 401.57434 320.34897Q401.82434 320.70834 401.82434 321.25522Q401.82434 321.78647 401.51184 322.25522Q401.21497 322.70834 400.63684 322.97397Q400.05872 323.22397 399.32434 323.22397Q398.1056 323.22397 397.46497 322.72397Q396.83997 322.20834 396.6681 321.22397Z" fill-rule="nonzero"/><path fill="#000000" d="M481.5043 323.08334L481.5043 314.4896L482.6293 314.4896L482.6293 323.08334L481.5043 323.08334ZM483.7543 321.22397L484.78555 321.06772Q484.8793 321.69272 485.26993 322.02084Q485.67618 322.34897 486.41055 322.34897Q487.1293 322.34897 487.47305 322.06772Q487.83243 321.77084 487.83243 321.3646Q487.83243 321.00522 487.51993 320.8021Q487.30118 320.66147 486.4418 320.44272Q485.28555 320.14584 484.83243 319.94272Q484.39493 319.72397 484.16055 319.34897Q483.92618 318.97397 483.92618 318.50522Q483.92618 318.09897 484.11368 317.7396Q484.30118 317.38022 484.6293 317.14584Q484.8793 316.97397 485.30118 316.84897Q485.72305 316.72397 486.22305 316.72397Q486.9418 316.72397 487.48868 316.94272Q488.05118 317.14584 488.3168 317.50522Q488.58243 317.8646 488.67618 318.45834L487.64493 318.59897Q487.58243 318.13022 487.23868 317.8646Q486.91055 317.58334 486.28555 317.58334Q485.5668 317.58334 485.2543 317.83334Q484.9418 318.06772 484.9418 318.39584Q484.9418 318.59897 485.0668 318.75522Q485.20743 318.9271 485.47305 319.03647Q485.6293 319.09897 486.41055 319.3021Q487.53555 319.6146 487.97305 319.8021Q488.41055 319.9896 488.66055 320.34897Q488.91055 320.70834 488.91055 321.25522Q488.91055 321.78647 488.59805 322.25522Q488.30118 322.70834 487.72305 322.97397Q487.14493 323.22397 486.41055 323.22397Q485.1918 323.22397 484.55118 322.72397Q483.92618 322.20834 483.7543 321.22397ZM490.7543 321.22397L491.78555 321.06772Q491.8793 321.69272 492.26993 322.02084Q492.67618 322.34897 493.41055 322.34897Q494.1293 322.34897 494.47305 322.06772Q494.83243 321.77084 494.83243 321.3646Q494.83243 321.00522 494.51993 320.8021Q494.30118 320.66147 493.4418 320.44272Q492.28555 320.14584 491.83243 319.94272Q491.39493 319.72397 491.16055 319.34897Q490.92618 318.97397 490.92618 318.50522Q490.92618 318.09897 491.11368 317.7396Q491.30118 317.38022 491.6293 317.14584Q491.8793 316.97397 492.30118 316.84897Q492.72305 316.72397 493.22305 316.72397Q493.9418 316.72397 494.48868 316.94272Q495.05118 317.14584 495.3168 317.50522Q495.58243 317.8646 495.67618 318.45834L494.64493 318.59897Q494.58243 318.13022 494.23868 317.8646Q493.91055 317.58334 493.28555 317.58334Q492.5668 317.58334 492.2543 317.83334Q491.9418 318.06772 491.9418 318.39584Q491.9418 318.59897 492.0668 318.75522Q492.20743 318.9271 492.47305 319.03647Q492.6293 319.09897 493.41055 319.3021Q494.53555 319.6146 494.97305 319.8021Q495.41055 319.9896 495.66055 320.34897Q495.91055 320.70834 495.91055 321.25522Q495.91055 321.78647 495.59805 322.25522Q495.30118 322.70834 494.72305 322.97397Q494.14493 323.22397 493.41055 323.22397Q492.1918 323.22397 491.55118 322.72397Q490.92618 322.20834 490.7543 321.22397ZM502.2543 323.08334L502.2543 322.16147Q501.51993 323.22397 500.26993 323.22397Q499.72305 323.22397 499.23868 323.02084Q498.76993 322.8021 498.53555 322.4896Q498.30118 322.16147 498.20743 321.69272Q498.14493 321.39584 498.14493 320.70834L498.14493 316.8646L499.20743 316.8646L499.20743 320.31772Q499.20743 321.13022 499.26993 321.4271Q499.36368 321.83334 499.67618 322.08334Q500.0043 322.31772 500.48868 322.31772Q500.95743 322.31772 501.36368 322.08334Q501.78555 321.83334 501.95743 321.41147Q502.14493 320.9896 502.14493 320.19272L502.14493 316.8646L503.1918 316.8646L503.1918 323.08334L502.2543 323.08334ZM509.42618 321.08334L510.51993 321.20834Q510.26993 322.16147 509.5668 322.69272Q508.86368 323.22397 507.78555 323.22397Q506.42618 323.22397 505.61368 322.38022Q504.8168 321.53647 504.8168 320.02084Q504.8168 318.45834 505.6293 317.59897Q506.4418 316.72397 507.72305 316.72397Q508.97305 316.72397 509.7543 317.56772Q510.55118 318.41147 510.55118 319.95834Q510.55118 320.0521 510.55118 320.2396L505.91055 320.2396Q505.97305 321.27084 506.48868 321.81772Q507.0043 322.34897 507.78555 322.34897Q508.36368 322.34897 508.76993 322.0521Q509.1918 321.7396 509.42618 321.08334ZM505.97305 319.38022L509.4418 319.38022Q509.3793 318.58334 509.05118 318.19272Q508.53555 317.58334 507.73868 317.58334Q507.0043 317.58334 506.5043 318.06772Q506.01993 318.5521 505.97305 319.38022ZM511.7543 321.22397L512.7855 321.06772Q512.8793 321.69272 513.2699 322.02084Q513.67615 322.34897 514.4105 322.34897Q515.1293 322.34897 515.473 322.06772Q515.8324 321.77084 515.8324 321.3646Q515.8324 321.00522 515.5199 320.8021Q515.30115 320.66147 514.4418 320.44272Q513.2855 320.14584 512.8324 319.94272Q512.3949 319.72397 512.1605 319.34897Q511.92618 318.97397 511.92618 318.50522Q511.92618 318.09897 512.11365 317.7396Q512.30115 317.38022 512.6293 317.14584Q512.8793 316.97397 513.30115 316.84897Q513.723 316.72397 514.223 316.72397Q514.9418 316.72397 515.48865 316.94272Q516.05115 317.14584 516.3168 317.50522Q516.5824 317.8646 516.67615 318.45834L515.6449 318.59897Q515.5824 318.13022 515.23865 317.8646Q514.9105 317.58334 514.2855 317.58334Q513.5668 317.58334 513.2543 317.83334Q512.9418 318.06772 512.9418 318.39584Q512.9418 318.59897 513.0668 318.75522Q513.2074 318.9271 513.473 319.03647Q513.6293 319.09897 514.4105 319.3021Q515.5355 319.6146 515.973 319.8021Q516.4105 319.9896 516.6605 320.34897Q516.9105 320.70834 516.9105 321.25522Q516.9105 321.78647 516.598 322.25522Q516.30115 322.70834 515.723 322.97397Q515.1449 323.22397 514.4105 323.22397Q513.1918 323.22397 512.55115 322.72397Q511.92618 322.20834 511.7543 321.22397Z" fill-rule="nonzero"/><path fill="#674ea7" d="M75.0 340.45C75.0 339.8977 75.447716 339.45 76.0 339.45L86.0 339.45C86.552284 339.45 87.0 339.8977 87.0 340.45L87.0 350.45C87.0 351.0023 86.552284 351.45 86.0 351.45L76.0 351.45C75.447716 351.45 75.0 351.0023 75.0 350.45Z" fill-rule="nonzero"/><path fill="#1a1a1a" d="M99.828125 349.45L99.828125 348.66876Q99.234375 349.59064 98.09375 349.59064Q97.34375 349.59064 96.71875 349.1844Q96.09375 348.7625 95.75 348.02814Q95.40625 347.29376 95.40625 346.34064Q95.40625 345.41876 95.71875 344.65314Q96.03125 343.8875 96.65625 343.4969Q97.28125 343.09064 98.046875 343.09064Q98.609375 343.09064 99.046875 343.325Q99.484375 343.5594 99.765625 343.9344L99.765625 340.85626L100.8125 340.85626L100.8125 349.45L99.828125 349.45ZM96.5 346.34064Q96.5 347.54376 97.0 348.1375Q97.5 348.71564 98.1875 348.71564Q98.875 348.71564 99.359375 348.15314Q99.84375 347.59064 99.84375 346.4344Q99.84375 345.15314 99.34375 344.5594Q98.859375 343.96564 98.140625 343.96564Q97.4375 343.96564 96.96875 344.54376Q96.5 345.10626 96.5 346.34064ZM106.859375 348.6844Q106.265625 349.1844 105.71875 349.3875Q105.1875 349.59064 104.5625 349.59064Q103.53125 349.59064 102.984375 349.09064Q102.4375 348.59064 102.4375 347.8094Q102.4375 347.35626 102.640625 346.98126Q102.84375 346.59064 103.1875 346.3719Q103.53125 346.1375 103.953125 346.02814Q104.25 345.9344 104.890625 345.85626Q106.15625 345.71564 106.765625 345.4969Q106.765625 345.27814 106.765625 345.23126Q106.765625 344.575 106.46875 344.3094Q106.0625 343.96564 105.265625 343.96564Q104.53125 343.96564 104.171875 344.23126Q103.8125 344.48126 103.640625 345.1375L102.609375 344.9969Q102.75 344.34064 103.078125 343.9344Q103.40625 343.52814 104.015625 343.3094Q104.625 343.09064 105.421875 343.09064Q106.21875 343.09064 106.71875 343.27814Q107.21875 343.46564 107.453125 343.7469Q107.6875 344.02814 107.78125 344.46564Q107.828125 344.73126 107.828125 345.4344L107.828125 346.84064Q107.828125 348.3094 107.890625 348.7Q107.96875 349.09064 108.171875 349.45L107.0625 349.45Q106.90625 349.1219 106.859375 348.6844ZM106.765625 346.325Q106.1875 346.5594 105.046875 346.73126Q104.390625 346.825 104.125 346.95Q103.859375 347.0594 103.703125 347.27814Q103.5625 347.4969 103.5625 347.77814Q103.5625 348.2 103.875 348.48126Q104.203125 348.7625 104.8125 348.7625Q105.421875 348.7625 105.890625 348.4969Q106.375 348.23126 106.59375 347.7625Q106.765625 347.40314 106.765625 346.71564L106.765625 346.325ZM112.09375 348.5125L112.25 349.4344Q111.796875 349.52814 111.453125 349.52814Q110.875 349.52814 110.5625 349.35626Q110.25 349.16876 110.109375 348.8719Q109.984375 348.575 109.984375 347.6219L109.984375 344.04376L109.21875 344.04376L109.21875 343.23126L109.984375 343.23126L109.984375 341.6844L111.03125 341.0594L111.03125 343.23126L112.09375 343.23126L112.09375 344.04376L111.03125 344.04376L111.03125 347.6844Q111.03125 348.1375 111.078125 348.2625Q111.140625 348.3875 111.265625 348.46564Q111.390625 348.54376 111.625 348.54376Q111.8125 348.54376 112.09375 348.5125ZM116.859375 348.6844Q116.265625 349.1844 115.71875 349.3875Q115.1875 349.59064 114.5625 349.59064Q113.53125 349.59064 112.984375 349.09064Q112.4375 348.59064 112.4375 347.8094Q112.4375 347.35626 112.640625 346.98126Q112.84375 346.59064 113.1875 346.3719Q113.53125 346.1375 113.953125 346.02814Q114.25 345.9344 114.890625 345.85626Q116.15625 345.71564 116.765625 345.4969Q116.765625 345.27814 116.765625 345.23126Q116.765625 344.575 116.46875 344.3094Q116.0625 343.96564 115.265625 343.96564Q114.53125 343.96564 114.171875 344.23126Q113.8125 344.48126 113.640625 345.1375L112.609375 344.9969Q112.75 344.34064 113.078125 343.9344Q113.40625 343.52814 114.015625 343.3094Q114.625 343.09064 115.421875 343.09064Q116.21875 343.09064 116.71875 343.27814Q117.21875 343.46564 117.453125 343.7469Q117.6875 344.02814 117.78125 344.46564Q117.828125 344.73126 117.828125 345.4344L117.828125 346.84064Q117.828125 348.3094 117.890625 348.7Q117.96875 349.09064 118.171875 349.45L117.0625 349.45Q116.90625 349.1219 116.859375 348.6844ZM116.765625 346.325Q116.1875 346.5594 115.046875 346.73126Q114.390625 346.825 114.125 346.95Q113.859375 347.0594 113.703125 347.27814Q113.5625 347.4969 113.5625 347.77814Q113.5625 348.2 113.875 348.48126Q114.203125 348.7625 114.8125 348.7625Q115.421875 348.7625 115.890625 348.4969Q116.375 348.23126 116.59375 347.7625Q116.765625 347.40314 116.765625 346.71564L116.765625 346.325ZM120.09375 349.45L120.09375 348.2469L121.296875 348.2469L121.296875 349.45L120.09375 349.45ZM127.046875 347.45L128.14062 347.575Q127.890625 348.52814 127.1875 349.0594Q126.484375 349.59064 125.40625 349.59064Q124.046875 349.59064 123.234375 348.7469Q122.4375 347.90314 122.4375 346.3875Q122.4375 344.825 123.25 343.96564Q124.0625 343.09064 125.34375 343.09064Q126.59375 343.09064 127.375 343.9344Q128.17188 344.77814 128.17188 346.325Q128.17188 346.41876 128.17188 346.60626L123.53125 346.60626Q123.59375 347.6375 124.109375 348.1844Q124.625 348.71564 125.40625 348.71564Q125.984375 348.71564 126.390625 348.41876Q126.8125 348.10626 127.046875 347.45ZM123.59375 345.7469L127.0625 345.7469Q127.0 344.95 126.671875 344.5594Q126.15625 343.95 125.359375 343.95Q124.625 343.95 124.125 344.4344Q123.640625 344.91876 123.59375 345.7469ZM133.875 349.45L133.875 348.52814Q133.14062 349.59064 131.89062 349.59064Q131.34375 349.59064 130.85938 349.3875Q130.39062 349.16876 130.15625 348.85626Q129.92188 348.52814 129.82812 348.0594Q129.76562 347.7625 129.76562 347.075L129.76562 343.23126L130.82812 343.23126L130.82812 346.6844Q130.82812 347.4969 130.89062 347.79376Q130.98438 348.2 131.29688 348.45Q131.625 348.6844 132.10938 348.6844Q132.57812 348.6844 132.98438 348.45Q133.40625 348.2 133.57812 347.77814Q133.76562 347.35626 133.76562 346.5594L133.76562 343.23126L134.8125 343.23126L134.8125 349.45L133.875 349.45ZM136.78125 349.45L136.78125 343.23126L137.73438 343.23126L137.73438 344.16876Q138.09375 343.5125 138.39062 343.3094Q138.70312 343.09064 139.07812 343.09064Q139.60938 343.09064 140.15625 343.41876L139.79688 344.40314Q139.40625 344.16876 139.03125 344.16876Q138.67188 344.16876 138.39062 344.3875Q138.125 344.59064 138.01562 344.96564Q137.82812 345.52814 137.82812 346.1844L137.82812 349.45L136.78125 349.45ZM140.40625 346.34064Q140.40625 344.60626 141.35938 343.77814Q142.15625 343.09064 143.3125 343.09064Q144.59375 343.09064 145.40625 343.9344Q146.23438 344.7625 146.23438 346.2469Q146.23438 347.45 145.875 348.1375Q145.51562 348.825 144.8125 349.21564Q144.125 349.59064 143.3125 349.59064Q142.01562 349.59064 141.20312 348.7625Q140.40625 347.91876 140.40625 346.34064ZM141.48438 346.34064Q141.48438 347.52814 142.0 348.1219Q142.53125 348.71564 143.3125 348.71564Q144.10938 348.71564 144.625 348.1219Q145.14062 347.52814 145.14062 346.3094Q145.14062 345.15314 144.60938 344.5594Q144.09375 343.96564 143.3125 343.96564Q142.53125 343.96564 142.0 344.5594Q141.48438 345.1375 141.48438 346.34064ZM147.79688 351.84064L147.79688 343.23126L148.75 343.23126L148.75 344.02814Q149.09375 343.5594 149.51562 343.325Q149.95312 343.09064 150.5625 343.09064Q151.35938 343.09064 151.96875 343.4969Q152.57812 343.90314 152.875 344.65314Q153.1875 345.40314 153.1875 346.29376Q153.1875 347.2469 152.84375 348.0125Q152.51562 348.77814 151.85938 349.1844Q151.20312 349.59064 150.48438 349.59064Q149.95312 349.59064 149.53125 349.3719Q149.10938 349.1375 148.84375 348.8094L148.84375 351.84064L147.79688 351.84064ZM148.75 346.3719Q148.75 347.575 149.23438 348.15314Q149.71875 348.71564 150.40625 348.71564Q151.10938 348.71564 151.60938 348.1219Q152.10938 347.52814 152.10938 346.27814Q152.10938 345.09064 151.625 344.5125Q151.14062 343.91876 150.45312 343.91876Q149.78125 343.91876 149.26562 344.54376Q148.75 345.16876 148.75 346.3719ZM158.85938 348.6844Q158.26562 349.1844 157.71875 349.3875Q157.1875 349.59064 156.5625 349.59064Q155.53125 349.59064 154.98438 349.09064Q154.4375 348.59064 154.4375 347.8094Q154.4375 347.35626 154.64062 346.98126Q154.84375 346.59064 155.1875 346.3719Q155.53125 346.1375 155.95312 346.02814Q156.25 345.9344 156.89062 345.85626Q158.15625 345.71564 158.76562 345.4969Q158.76562 345.27814 158.76562 345.23126Q158.76562 344.575 158.46875 344.3094Q158.0625 343.96564 157.26562 343.96564Q156.53125 343.96564 156.17188 344.23126Q155.8125 344.48126 155.64062 345.1375L154.60938 344.9969Q154.75 344.34064 155.07812 343.9344Q155.40625 343.52814 156.01562 343.3094Q156.625 343.09064 157.42188 343.09064Q158.21875 343.09064 158.71875 343.27814Q159.21875 343.46564 159.45312 343.7469Q159.6875 344.02814 159.78125 344.46564Q159.82812 344.73126 159.82812 345.4344L159.82812 346.84064Q159.82812 348.3094 159.89062 348.7Q159.96875 349.09064 160.17188 349.45L159.0625 349.45Q158.90625 349.1219 158.85938 348.6844ZM158.76562 346.325Q158.1875 346.5594 157.04688 346.73126Q156.39062 346.825 156.125 346.95Q155.85938 347.0594 155.70312 347.27814Q155.5625 347.4969 155.5625 347.77814Q155.5625 348.2 155.875 348.48126Q156.20312 348.7625 156.8125 348.7625Q157.42188 348.7625 157.89062 348.4969Q158.375 348.23126 158.59375 347.7625Q158.76562 347.40314 158.76562 346.71564L158.76562 346.325ZM162.09375 349.45L162.09375 348.2469L163.29688 348.2469L163.29688 349.45L162.09375 349.45ZM169.04688 347.45L170.14062 347.575Q169.89062 348.52814 169.1875 349.0594Q168.48438 349.59064 167.40625 349.59064Q166.04688 349.59064 165.23438 348.7469Q164.4375 347.90314 164.4375 346.3875Q164.4375 344.825 165.25 343.96564Q166.0625 343.09064 167.34375 343.09064Q168.59375 343.09064 169.375 343.9344Q170.17188 344.77814 170.17188 346.325Q170.17188 346.41876 170.17188 346.60626L165.53125 346.60626Q165.59375 347.6375 166.10938 348.1844Q166.625 348.71564 167.40625 348.71564Q167.98438 348.71564 168.39062 348.41876Q168.8125 348.10626 169.04688 347.45ZM165.59375 345.7469L169.0625 345.7469Q169.0 344.95 168.67188 344.5594Q168.15625 343.95 167.35938 343.95Q166.625 343.95 166.125 344.4344Q165.64062 344.91876 165.59375 345.7469ZM175.875 349.45L175.875 348.52814Q175.14062 349.59064 173.89062 349.59064Q173.34375 349.59064 172.85938 349.3875Q172.39062 349.16876 172.15625 348.85626Q171.92188 348.52814 171.82812 348.0594Q171.76562 347.7625 171.76562 347.075L171.76562 343.23126L172.82812 343.23126L172.82812 346.6844Q172.82812 347.4969 172.89062 347.79376Q172.98438 348.2 173.29688 348.45Q173.625 348.6844 174.10938 348.6844Q174.57812 348.6844 174.98438 348.45Q175.40625 348.2 175.57812 347.77814Q175.76562 347.35626 175.76562 346.5594L175.76562 343.23126L176.8125 343.23126L176.8125 349.45L175.875 349.45Z" fill-rule="nonzero"/><path fill="#c27ba0" d="M194.0 340.45C194.0 339.8977 194.44771 339.45 195.0 339.45L205.0 339.45C205.55229 339.45 206.0 339.8977 206.0 340.45L206.0 350.45C206.0 351.0023 205.55229 351.45 205.0 351.45L195.0 351.45C194.44771 351.45 194.0 351.0023 194.0 350.45Z" fill-rule="nonzero"/><path fill="#1a1a1a" d="M218.82812 349.45L218.82812 348.66876Q218.23438 349.59064 217.09375 349.59064Q216.34375 349.59064 215.71875 349.1844Q215.09375 348.7625 214.75 348.02814Q214.40625 347.29376 214.40625 346.34064Q214.40625 345.41876 214.71875 344.65314Q215.03125 343.8875 215.65625 343.4969Q216.28125 343.09064 217.04688 343.09064Q217.60938 343.09064 218.04688 343.325Q218.48438 343.5594 218.76562 343.9344L218.76562 340.85626L219.8125 340.85626L219.8125 349.45L218.82812 349.45ZM215.5 346.34064Q215.5 347.54376 216.0 348.1375Q216.5 348.71564 217.1875 348.71564Q217.875 348.71564 218.35938 348.15314Q218.84375 347.59064 218.84375 346.4344Q218.84375 345.15314 218.34375 344.5594Q217.85938 343.96564 217.14062 343.96564Q216.4375 343.96564 215.96875 344.54376Q215.5 345.10626 215.5 346.34064ZM225.85938 348.6844Q225.26562 349.1844 224.71875 349.3875Q224.1875 349.59064 223.5625 349.59064Q222.53125 349.59064 221.98438 349.09064Q221.4375 348.59064 221.4375 347.8094Q221.4375 347.35626 221.64062 346.98126Q221.84375 346.59064 222.1875 346.3719Q222.53125 346.1375 222.95312 346.02814Q223.25 345.9344 223.89062 345.85626Q225.15625 345.71564 225.76562 345.4969Q225.76562 345.27814 225.76562 345.23126Q225.76562 344.575 225.46875 344.3094Q225.0625 343.96564 224.26562 343.96564Q223.53125 343.96564 223.17188 344.23126Q222.8125 344.48126 222.64062 345.1375L221.60938 344.9969Q221.75 344.34064 222.07812 343.9344Q222.40625 343.52814 223.01562 343.3094Q223.625 343.09064 224.42188 343.09064Q225.21875 343.09064 225.71875 343.27814Q226.21875 343.46564 226.45312 343.7469Q226.6875 344.02814 226.78125 344.46564Q226.82812 344.73126 226.82812 345.4344L226.82812 346.84064Q226.82812 348.3094 226.89062 348.7Q226.96875 349.09064 227.17188 349.45L226.0625 349.45Q225.90625 349.1219 225.85938 348.6844ZM225.76562 346.325Q225.1875 346.5594 224.04688 346.73126Q223.39062 346.825 223.125 346.95Q222.85938 347.0594 222.70312 347.27814Q222.5625 347.4969 222.5625 347.77814Q222.5625 348.2 222.875 348.48126Q223.20312 348.7625 223.8125 348.7625Q224.42188 348.7625 224.89062 348.4969Q225.375 348.23126 225.59375 347.7625Q225.76562 347.40314 225.76562 346.71564L225.76562 346.325ZM231.09375 348.5125L231.25 349.4344Q230.79688 349.52814 230.45312 349.52814Q229.875 349.52814 229.5625 349.35626Q229.25 349.16876 229.10938 348.8719Q228.98438 348.575 228.98438 347.6219L228.98438 344.04376L228.21875 344.04376L228.21875 343.23126L228.98438 343.23126L228.98438 341.6844L230.03125 341.0594L230.03125 343.23126L231.09375 343.23126L231.09375 344.04376L230.03125 344.04376L230.03125 347.6844Q230.03125 348.1375 230.07812 348.2625Q230.14062 348.3875 230.26562 348.46564Q230.39062 348.54376 230.625 348.54376Q230.8125 348.54376 231.09375 348.5125ZM235.85938 348.6844Q235.26562 349.1844 234.71875 349.3875Q234.1875 349.59064 233.5625 349.59064Q232.53125 349.59064 231.98438 349.09064Q231.4375 348.59064 231.4375 347.8094Q231.4375 347.35626 231.64062 346.98126Q231.84375 346.59064 232.1875 346.3719Q232.53125 346.1375 232.95312 346.02814Q233.25 345.9344 233.89062 345.85626Q235.15625 345.71564 235.76562 345.4969Q235.76562 345.27814 235.76562 345.23126Q235.76562 344.575 235.46875 344.3094Q235.0625 343.96564 234.26562 343.96564Q233.53125 343.96564 233.17188 344.23126Q232.8125 344.48126 232.64062 345.1375L231.60938 344.9969Q231.75 344.34064 232.07812 343.9344Q232.40625 343.52814 233.01562 343.3094Q233.625 343.09064 234.42188 343.09064Q235.21875 343.09064 235.71875 343.27814Q236.21875 343.46564 236.45312 343.7469Q236.6875 344.02814 236.78125 344.46564Q236.82812 344.73126 236.82812 345.4344L236.82812 346.84064Q236.82812 348.3094 236.89062 348.7Q236.96875 349.09064 237.17188 349.45L236.0625 349.45Q235.90625 349.1219 235.85938 348.6844ZM235.76562 346.325Q235.1875 346.5594 234.04688 346.73126Q233.39062 346.825 233.125 346.95Q232.85938 347.0594 232.70312 347.27814Q232.5625 347.4969 232.5625 347.77814Q232.5625 348.2 232.875 348.48126Q233.20312 348.7625 233.8125 348.7625Q234.42188 348.7625 234.89062 348.4969Q235.375 348.23126 235.59375 347.7625Q235.76562 347.40314 235.76562 346.71564L235.76562 346.325ZM239.09375 349.45L239.09375 348.2469L240.29688 348.2469L240.29688 349.45L239.09375 349.45ZM246.04688 347.45L247.14062 347.575Q246.89062 348.52814 246.1875 349.0594Q245.48438 349.59064 244.40625 349.59064Q243.04688 349.59064 242.23438 348.7469Q241.4375 347.90314 241.4375 346.3875Q241.4375 344.825 242.25 343.96564Q243.0625 343.09064 244.34375 343.09064Q245.59375 343.09064 246.375 343.9344Q247.17188 344.77814 247.17188 346.325Q247.17188 346.41876 247.17188 346.60626L242.53125 346.60626Q242.59375 347.6375 243.10938 348.1844Q243.625 348.71564 244.40625 348.71564Q244.98438 348.71564 245.39062 348.41876Q245.8125 348.10626 246.04688 347.45ZM242.59375 345.7469L246.0625 345.7469Q246.0 344.95 245.67188 344.5594Q245.15625 343.95 244.35938 343.95Q243.625 343.95 243.125 344.4344Q242.64062 344.91876 242.59375 345.7469ZM252.875 349.45L252.875 348.52814Q252.14062 349.59064 250.89062 349.59064Q250.34375 349.59064 249.85938 349.3875Q249.39062 349.16876 249.15625 348.85626Q248.92188 348.52814 248.82812 348.0594Q248.76562 347.7625 248.76562 347.075L248.76562 343.23126L249.82812 343.23126L249.82812 346.6844Q249.82812 347.4969 249.89062 347.79376Q249.98438 348.2 250.29688 348.45Q250.625 348.6844 251.10938 348.6844Q251.57812 348.6844 251.98438 348.45Q252.40625 348.2 252.57812 347.77814Q252.76562 347.35626 252.76562 346.5594L252.76562 343.23126L253.8125 343.23126L253.8125 349.45L252.875 349.45ZM255.78125 349.45L255.78125 343.23126L256.73438 343.23126L256.73438 344.16876Q257.09375 343.5125 257.39062 343.3094Q257.70312 343.09064 258.07812 343.09064Q258.60938 343.09064 259.15625 343.41876L258.79688 344.40314Q258.40625 344.16876 258.03125 344.16876Q257.67188 344.16876 257.39062 344.3875Q257.125 344.59064 257.01562 344.96564Q256.82812 345.52814 256.82812 346.1844L256.82812 349.45L255.78125 349.45ZM259.40625 346.34064Q259.40625 344.60626 260.35938 343.77814Q261.15625 343.09064 262.3125 343.09064Q263.59375 343.09064 264.40625 343.9344Q265.23438 344.7625 265.23438 346.2469Q265.23438 347.45 264.875 348.1375Q264.51562 348.825 263.8125 349.21564Q263.125 349.59064 262.3125 349.59064Q261.01562 349.59064 260.20312 348.7625Q259.40625 347.91876 259.40625 346.34064ZM260.48438 346.34064Q260.48438 347.52814 261.0 348.1219Q261.53125 348.71564 262.3125 348.71564Q263.10938 348.71564 263.625 348.1219Q264.14062 347.52814 264.14062 346.3094Q264.14062 345.15314 263.60938 344.5594Q263.09375 343.96564 262.3125 343.96564Q261.53125 343.96564 261.0 344.5594Q260.48438 345.1375 260.48438 346.34064ZM266.79688 351.84064L266.79688 343.23126L267.75 343.23126L267.75 344.02814Q268.09375 343.5594 268.51562 343.325Q268.95312 343.09064 269.5625 343.09064Q270.35938 343.09064 270.96875 343.4969Q271.57812 343.90314 271.875 344.65314Q272.1875 345.40314 272.1875 346.29376Q272.1875 347.2469 271.84375 348.0125Q271.51562 348.77814 270.85938 349.1844Q270.20312 349.59064 269.48438 349.59064Q268.95312 349.59064 268.53125 349.3719Q268.10938 349.1375 267.84375 348.8094L267.84375 351.84064L266.79688 351.84064ZM267.75 346.3719Q267.75 347.575 268.23438 348.15314Q268.71875 348.71564 269.40625 348.71564Q270.10938 348.71564 270.60938 348.1219Q271.10938 347.52814 271.10938 346.27814Q271.10938 345.09064 270.625 344.5125Q270.14062 343.91876 269.45312 343.91876Q268.78125 343.91876 268.26562 344.54376Q267.75 345.16876 267.75 346.3719ZM277.85938 348.6844Q277.26562 349.1844 276.71875 349.3875Q276.1875 349.59064 275.5625 349.59064Q274.53125 349.59064 273.98438 349.09064Q273.4375 348.59064 273.4375 347.8094Q273.4375 347.35626 273.64062 346.98126Q273.84375 346.59064 274.1875 346.3719Q274.53125 346.1375 274.95312 346.02814Q275.25 345.9344 275.89062 345.85626Q277.15625 345.71564 277.76562 345.4969Q277.76562 345.27814 277.76562 345.23126Q277.76562 344.575 277.46875 344.3094Q277.0625 343.96564 276.26562 343.96564Q275.53125 343.96564 275.17188 344.23126Q274.8125 344.48126 274.64062 345.1375L273.60938 344.9969Q273.75 344.34064 274.07812 343.9344Q274.40625 343.52814 275.01562 343.3094Q275.625 343.09064 276.42188 343.09064Q277.21875 343.09064 277.71875 343.27814Q278.21875 343.46564 278.45312 343.7469Q278.6875 344.02814 278.78125 344.46564Q278.82812 344.73126 278.82812 345.4344L278.82812 346.84064Q278.82812 348.3094 278.89062 348.7Q278.96875 349.09064 279.17188 349.45L278.0625 349.45Q277.90625 349.1219 277.85938 348.6844ZM277.76562 346.325Q277.1875 346.5594 276.04688 346.73126Q275.39062 346.825 275.125 346.95Q274.85938 347.0594 274.70312 347.27814Q274.5625 347.4969 274.5625 347.77814Q274.5625 348.2 274.875 348.48126Q275.20312 348.7625 275.8125 348.7625Q276.42188 348.7625 276.89062 348.4969Q277.375 348.23126 277.59375 347.7625Q277.76562 347.40314 277.76562 346.71564L277.76562 346.325ZM281.09375 349.45L281.09375 348.2469L282.29688 348.2469L282.29688 349.45L281.09375 349.45ZM288.04688 347.45L289.14062 347.575Q288.89062 348.52814 288.1875 349.0594Q287.48438 349.59064 286.40625 349.59064Q285.04688 349.59064 284.23438 348.7469Q283.4375 347.90314 283.4375 346.3875Q283.4375 344.825 284.25 343.96564Q285.0625 343.09064 286.34375 343.09064Q287.59375 343.09064 288.375 343.9344Q289.17188 344.77814 289.17188 346.325Q289.17188 346.41876 289.17188 346.60626L284.53125 346.60626Q284.59375 347.6375 285.10938 348.1844Q285.625 348.71564 286.40625 348.71564Q286.98438 348.71564 287.39062 348.41876Q287.8125 348.10626 288.04688 347.45ZM284.59375 345.7469L288.0625 345.7469Q288.0 344.95 287.67188 344.5594Q287.15625 343.95 286.35938 343.95Q285.625 343.95 285.125 344.4344Q284.64062 344.91876 284.59375 345.7469ZM294.875 349.45L294.875 348.52814Q294.14062 349.59064 292.89062 349.59064Q292.34375 349.59064 291.85938 349.3875Q291.39062 349.16876 291.15625 348.85626Q290.92188 348.52814 290.82812 348.0594Q290.76562 347.7625 290.76562 347.075L290.76562 343.23126L291.82812 343.23126L291.82812 346.6844Q291.82812 347.4969 291.89062 347.79376Q291.98438 348.2 292.29688 348.45Q292.625 348.6844 293.10938 348.6844Q293.57812 348.6844 293.98438 348.45Q294.40625 348.2 294.57812 347.77814Q294.76562 347.35626 294.76562 346.5594L294.76562 343.23126L295.8125 343.23126L295.8125 349.45L294.875 349.45ZM297.0 349.59064L299.48438 340.71564L300.32812 340.71564L297.84375 349.59064L297.0 349.59064ZM304.82812 349.45L304.82812 348.66876Q304.23438 349.59064 303.09375 349.59064Q302.34375 349.59064 301.71875 349.1844Q301.09375 348.7625 300.75 348.02814Q300.40625 347.29376 300.40625 346.34064Q300.40625 345.41876 300.71875 344.65314Q301.03125 343.8875 301.65625 343.4969Q302.28125 343.09064 303.04688 343.09064Q303.60938 343.09064 304.04688 343.325Q304.48438 343.5594 304.76562 343.9344L304.76562 340.85626L305.8125 340.85626L305.8125 349.45L304.82812 349.45ZM301.5 346.34064Q301.5 347.54376 302.0 348.1375Q302.5 348.71564 303.1875 348.71564Q303.875 348.71564 304.35938 348.15314Q304.84375 347.59064 304.84375 346.4344Q304.84375 345.15314 304.34375 344.5594Q303.85938 343.96564 303.14062 343.96564Q302.4375 343.96564 301.96875 344.54376Q301.5 345.10626 301.5 346.34064ZM311.85938 348.6844Q311.26562 349.1844 310.71875 349.3875Q310.1875 349.59064 309.5625 349.59064Q308.53125 349.59064 307.98438 349.09064Q307.4375 348.59064 307.4375 347.8094Q307.4375 347.35626 307.64062 346.98126Q307.84375 346.59064 308.1875 346.3719Q308.53125 346.1375 308.95312 346.02814Q309.25 345.9344 309.89062 345.85626Q311.15625 345.71564 311.76562 345.4969Q311.76562 345.27814 311.76562 345.23126Q311.76562 344.575 311.46875 344.3094Q311.0625 343.96564 310.26562 343.96564Q309.53125 343.96564 309.17188 344.23126Q308.8125 344.48126 308.64062 345.1375L307.60938 344.9969Q307.75 344.34064 308.07812 343.9344Q308.40625 343.52814 309.01562 343.3094Q309.625 343.09064 310.42188 343.09064Q311.21875 343.09064 311.71875 343.27814Q312.21875 343.46564 312.45312 343.7469Q312.6875 344.02814 312.78125 344.46564Q312.82812 344.73126 312.82812 345.4344L312.82812 346.84064Q312.82812 348.3094 312.89062 348.7Q312.96875 349.09064 313.17188 349.45L312.0625 349.45Q311.90625 349.1219 311.85938 348.6844ZM311.76562 346.325Q311.1875 346.5594 310.04688 346.73126Q309.39062 346.825 309.125 346.95Q308.85938 347.0594 308.70312 347.27814Q308.5625 347.4969 308.5625 347.77814Q308.5625 348.2 308.875 348.48126Q309.20312 348.7625 309.8125 348.7625Q310.42188 348.7625 310.89062 348.4969Q311.375 348.23126 311.59375 347.7625Q311.76562 347.40314 311.76562 346.71564L311.76562 346.325ZM317.09375 348.5125L317.25 349.4344Q316.79688 349.52814 316.45312 349.52814Q315.875 349.52814 315.5625 349.35626Q315.25 349.16876 315.10938 348.8719Q314.98438 348.575 314.98438 347.6219L314.98438 344.04376L314.21875 344.04376L314.21875 343.23126L314.98438 343.23126L314.98438 341.6844L316.03125 341.0594L316.03125 343.23126L317.09375 343.23126L317.09375 344.04376L316.03125 344.04376L316.03125 347.6844Q316.03125 348.1375 316.07812 348.2625Q316.14062 348.3875 316.26562 348.46564Q316.39062 348.54376 316.625 348.54376Q316.8125 348.54376 317.09375 348.5125ZM321.85938 348.6844Q321.26562 349.1844 320.71875 349.3875Q320.1875 349.59064 319.5625 349.59064Q318.53125 349.59064 317.98438 349.09064Q317.4375 348.59064 317.4375 347.8094Q317.4375 347.35626 317.64062 346.98126Q317.84375 346.59064 318.1875 346.3719Q318.53125 346.1375 318.95312 346.02814Q319.25 345.9344 319.89062 345.85626Q321.15625 345.71564 321.76562 345.4969Q321.76562 345.27814 321.76562 345.23126Q321.76562 344.575 321.46875 344.3094Q321.0625 343.96564 320.26562 343.96564Q319.53125 343.96564 319.17188 344.23126Q318.8125 344.48126 318.64062 345.1375L317.60938 344.9969Q317.75 344.34064 318.07812 343.9344Q318.40625 343.52814 319.01562 343.3094Q319.625 343.09064 320.42188 343.09064Q321.21875 343.09064 321.71875 343.27814Q322.21875 343.46564 322.45312 343.7469Q322.6875 344.02814 322.78125 344.46564Q322.82812 344.73126 322.82812 345.4344L322.82812 346.84064Q322.82812 348.3094 322.89062 348.7Q322.96875 349.09064 323.17188 349.45L322.0625 349.45Q321.90625 349.1219 321.85938 348.6844ZM321.76562 346.325Q321.1875 346.5594 320.04688 346.73126Q319.39062 346.825 319.125 346.95Q318.85938 347.0594 318.70312 347.27814Q318.5625 347.4969 318.5625 347.77814Q318.5625 348.2 318.875 348.48126Q319.20312 348.7625 319.8125 348.7625Q320.42188 348.7625 320.89062 348.4969Q321.375 348.23126 321.59375 347.7625Q321.76562 347.40314 321.76562 346.71564L321.76562 346.325ZM324.375 347.59064L325.40625 347.4344Q325.5 348.0594 325.89062 348.3875Q326.29688 348.71564 327.03125 348.71564Q327.75 348.71564 328.09375 348.4344Q328.45312 348.1375 328.45312 347.73126Q328.45312 347.3719 328.14062 347.16876Q327.92188 347.02814 327.0625 346.8094Q325.90625 346.5125 325.45312 346.3094Q325.01562 346.09064 324.78125 345.71564Q324.54688 345.34064 324.54688 344.8719Q324.54688 344.46564 324.73438 344.10626Q324.92188 343.7469 325.25 343.5125Q325.5 343.34064 325.92188 343.21564Q326.34375 343.09064 326.84375 343.09064Q327.5625 343.09064 328.10938 343.3094Q328.67188 343.5125 328.9375 343.8719Q329.20312 344.23126 329.29688 344.825L328.26562 344.96564Q328.20312 344.4969 327.85938 344.23126Q327.53125 343.95 326.90625 343.95Q326.1875 343.95 325.875 344.2Q325.5625 344.4344 325.5625 344.7625Q325.5625 344.96564 325.6875 345.1219Q325.82812 345.29376 326.09375 345.40314Q326.25 345.46564 327.03125 345.66876Q328.15625 345.98126 328.59375 346.16876Q329.03125 346.35626 329.28125 346.71564Q329.53125 347.075 329.53125 347.6219Q329.53125 348.15314 329.21875 348.6219Q328.92188 349.075 328.34375 349.34064Q327.76562 349.59064 327.03125 349.59064Q325.8125 349.59064 325.17188 349.09064Q324.54688 348.575 324.375 347.59064ZM334.09375 348.5125L334.25 349.4344Q333.79688 349.52814 333.45312 349.52814Q332.875 349.52814 332.5625 349.35626Q332.25 349.16876 332.10938 348.8719Q331.98438 348.575 331.98438 347.6219L331.98438 344.04376L331.21875 344.04376L331.21875 343.23126L331.98438 343.23126L331.98438 341.6844L333.03125 341.0594L333.03125 343.23126L334.09375 343.23126L334.09375 344.04376L333.03125 344.04376L333.03125 347.6844Q333.03125 348.1375 333.07812 348.2625Q333.14062 348.3875 333.26562 348.46564Q333.39062 348.54376 333.625 348.54376Q333.8125 348.54376 334.09375 348.5125ZM334.40625 346.34064Q334.40625 344.60626 335.35938 343.77814Q336.15625 343.09064 337.3125 343.09064Q338.59375 343.09064 339.40625 343.9344Q340.23438 344.7625 340.23438 346.2469Q340.23438 347.45 339.875 348.1375Q339.51562 348.825 338.8125 349.21564Q338.125 349.59064 337.3125 349.59064Q336.01562 349.59064 335.20312 348.7625Q334.40625 347.91876 334.40625 346.34064ZM335.48438 346.34064Q335.48438 347.52814 336.0 348.1219Q336.53125 348.71564 337.3125 348.71564Q338.10938 348.71564 338.625 348.1219Q339.14062 347.52814 339.14062 346.3094Q339.14062 345.15314 338.60938 344.5594Q338.09375 343.96564 337.3125 343.96564Q336.53125 343.96564 336.0 344.5594Q335.48438 345.1375 335.48438 346.34064ZM341.78125 349.45L341.78125 343.23126L342.73438 343.23126L342.73438 344.16876Q343.09375 343.5125 343.39062 343.3094Q343.70312 343.09064 344.07812 343.09064Q344.60938 343.09064 345.15625 343.41876L344.79688 344.40314Q344.40625 344.16876 344.03125 344.16876Q343.67188 344.16876 343.39062 344.3875Q343.125 344.59064 343.01562 344.96564Q342.82812 345.52814 342.82812 346.1844L342.82812 349.45L341.78125 349.45ZM345.79688 342.075L345.79688 340.85626L346.85938 340.85626L346.85938 342.075L345.79688 342.075ZM345.79688 349.45L345.79688 343.23126L346.85938 343.23126L346.85938 349.45L345.79688 349.45ZM353.04688 347.45L354.14062 347.575Q353.89062 348.52814 353.1875 349.0594Q352.48438 349.59064 351.40625 349.59064Q350.04688 349.59064 349.23438 348.7469Q348.4375 347.90314 348.4375 346.3875Q348.4375 344.825 349.25 343.96564Q350.0625 343.09064 351.34375 343.09064Q352.59375 343.09064 353.375 343.9344Q354.17188 344.77814 354.17188 346.325Q354.17188 346.41876 354.17188 346.60626L349.53125 346.60626Q349.59375 347.6375 350.10938 348.1844Q350.625 348.71564 351.40625 348.71564Q351.98438 348.71564 352.39062 348.41876Q352.8125 348.10626 353.04688 347.45ZM349.59375 345.7469L353.0625 345.7469Q353.0 344.95 352.67188 344.5594Q352.15625 343.95 351.35938 343.95Q350.625 343.95 350.125 344.4344Q349.64062 344.91876 349.59375 345.7469ZM355.375 347.59064L356.40625 347.4344Q356.5 348.0594 356.89062 348.3875Q357.29688 348.71564 358.03125 348.71564Q358.75 348.71564 359.09375 348.4344Q359.45312 348.1375 359.45312 347.73126Q359.45312 347.3719 359.14062 347.16876Q358.92188 347.02814 358.0625 346.8094Q356.90625 346.5125 356.45312 346.3094Q356.01562 346.09064 355.78125 345.71564Q355.54688 345.34064 355.54688 344.8719Q355.54688 344.46564 355.73438 344.10626Q355.92188 343.7469 356.25 343.5125Q356.5 343.34064 356.92188 343.21564Q357.34375 343.09064 357.84375 343.09064Q358.5625 343.09064 359.10938 343.3094Q359.67188 343.5125 359.9375 343.8719Q360.20312 344.23126 360.29688 344.825L359.26562 344.96564Q359.20312 344.4969 358.85938 344.23126Q358.53125 343.95 357.90625 343.95Q357.1875 343.95 356.875 344.2Q356.5625 344.4344 356.5625 344.7625Q356.5625 344.96564 356.6875 345.1219Q356.82812 345.29376 357.09375 345.40314Q357.25 345.46564 358.03125 345.66876Q359.15625 345.98126 359.59375 346.16876Q360.03125 346.35626 360.28125 346.71564Q360.53125 347.075 360.53125 347.6219Q360.53125 348.15314 360.21875 348.6219Q359.92188 349.075 359.34375 349.34064Q358.76562 349.59064 358.03125 349.59064Q356.8125 349.59064 356.17188 349.09064Q355.54688 348.575 355.375 347.59064Z" fill-rule="nonzero"/><path fill="#ff6d01" d="M378.0 340.45C378.0 339.8977 378.44772 339.45 379.0 339.45L389.0 339.45C389.55228 339.45 390.0 339.8977 390.0 340.45L390.0 350.45C390.0 351.0023 389.55228 351.45 389.0 351.45L379.0 351.45C378.44772 351.45 378.0 351.0023 378.0 350.45Z" fill-rule="nonzero"/><path fill="#1a1a1a" d="M402.82812 349.45L402.82812 348.66876Q402.23438 349.59064 401.09375 349.59064Q400.34375 349.59064 399.71875 349.1844Q399.09375 348.7625 398.75 348.02814Q398.40625 347.29376 398.40625 346.34064Q398.40625 345.41876 398.71875 344.65314Q399.03125 343.8875 399.65625 343.4969Q400.28125 343.09064 401.04688 343.09064Q401.60938 343.09064 402.04688 343.325Q402.48438 343.5594 402.76562 343.9344L402.76562 340.85626L403.8125 340.85626L403.8125 349.45L402.82812 349.45ZM399.5 346.34064Q399.5 347.54376 400.0 348.1375Q400.5 348.71564 401.1875 348.71564Q401.875 348.71564 402.35938 348.15314Q402.84375 347.59064 402.84375 346.4344Q402.84375 345.15314 402.34375 344.5594Q401.85938 343.96564 401.14062 343.96564Q400.4375 343.96564 399.96875 344.54376Q399.5 345.10626 399.5 346.34064ZM409.85938 348.6844Q409.26562 349.1844 408.71875 349.3875Q408.1875 349.59064 407.5625 349.59064Q406.53125 349.59064 405.98438 349.09064Q405.4375 348.59064 405.4375 347.8094Q405.4375 347.35626 405.64062 346.98126Q405.84375 346.59064 406.1875 346.3719Q406.53125 346.1375 406.95312 346.02814Q407.25 345.9344 407.89062 345.85626Q409.15625 345.71564 409.76562 345.4969Q409.76562 345.27814 409.76562 345.23126Q409.76562 344.575 409.46875 344.3094Q409.0625 343.96564 408.26562 343.96564Q407.53125 343.96564 407.17188 344.23126Q406.8125 344.48126 406.64062 345.1375L405.60938 344.9969Q405.75 344.34064 406.07812 343.9344Q406.40625 343.52814 407.01562 343.3094Q407.625 343.09064 408.42188 343.09064Q409.21875 343.09064 409.71875 343.27814Q410.21875 343.46564 410.45312 343.7469Q410.6875 344.02814 410.78125 344.46564Q410.82812 344.73126 410.82812 345.4344L410.82812 346.84064Q410.82812 348.3094 410.89062 348.7Q410.96875 349.09064 411.17188 349.45L410.0625 349.45Q409.90625 349.1219 409.85938 348.6844ZM409.76562 346.325Q409.1875 346.5594 408.04688 346.73126Q407.39062 346.825 407.125 346.95Q406.85938 347.0594 406.70312 347.27814Q406.5625 347.4969 406.5625 347.77814Q406.5625 348.2 406.875 348.48126Q407.20312 348.7625 407.8125 348.7625Q408.42188 348.7625 408.89062 348.4969Q409.375 348.23126 409.59375 347.7625Q409.76562 347.40314 409.76562 346.71564L409.76562 346.325ZM415.09375 348.5125L415.25 349.4344Q414.79688 349.52814 414.45312 349.52814Q413.875 349.52814 413.5625 349.35626Q413.25 349.16876 413.10938 348.8719Q412.98438 348.575 412.98438 347.6219L412.98438 344.04376L412.21875 344.04376L412.21875 343.23126L412.98438 343.23126L412.98438 341.6844L414.03125 341.0594L414.03125 343.23126L415.09375 343.23126L415.09375 344.04376L414.03125 344.04376L414.03125 347.6844Q414.03125 348.1375 414.07812 348.2625Q414.14062 348.3875 414.26562 348.46564Q414.39062 348.54376 414.625 348.54376Q414.8125 348.54376 415.09375 348.5125ZM419.85938 348.6844Q419.26562 349.1844 418.71875 349.3875Q418.1875 349.59064 417.5625 349.59064Q416.53125 349.59064 415.98438 349.09064Q415.4375 348.59064 415.4375 347.8094Q415.4375 347.35626 415.64062 346.98126Q415.84375 346.59064 416.1875 346.3719Q416.53125 346.1375 416.95312 346.02814Q417.25 345.9344 417.89062 345.85626Q419.15625 345.71564 419.76562 345.4969Q419.76562 345.27814 419.76562 345.23126Q419.76562 344.575 419.46875 344.3094Q419.0625 343.96564 418.26562 343.96564Q417.53125 343.96564 417.17188 344.23126Q416.8125 344.48126 416.64062 345.1375L415.60938 344.9969Q415.75 344.34064 416.07812 343.9344Q416.40625 343.52814 417.01562 343.3094Q417.625 343.09064 418.42188 343.09064Q419.21875 343.09064 419.71875 343.27814Q420.21875 343.46564 420.45312 343.7469Q420.6875 344.02814 420.78125 344.46564Q420.82812 344.73126 420.82812 345.4344L420.82812 346.84064Q420.82812 348.3094 420.89062 348.7Q420.96875 349.09064 421.17188 349.45L420.0625 349.45Q419.90625 349.1219 419.85938 348.6844ZM419.76562 346.325Q419.1875 346.5594 418.04688 346.73126Q417.39062 346.825 417.125 346.95Q416.85938 347.0594 416.70312 347.27814Q416.5625 347.4969 416.5625 347.77814Q416.5625 348.2 416.875 348.48126Q417.20312 348.7625 417.8125 348.7625Q418.42188 348.7625 418.89062 348.4969Q419.375 348.23126 419.59375 347.7625Q419.76562 347.40314 419.76562 346.71564L419.76562 346.325ZM423.09375 349.45L423.09375 348.2469L424.29688 348.2469L424.29688 349.45L423.09375 349.45ZM430.04688 347.45L431.14062 347.575Q430.89062 348.52814 430.1875 349.0594Q429.48438 349.59064 428.40625 349.59064Q427.04688 349.59064 426.23438 348.7469Q425.4375 347.90314 425.4375 346.3875Q425.4375 344.825 426.25 343.96564Q427.0625 343.09064 428.34375 343.09064Q429.59375 343.09064 430.375 343.9344Q431.17188 344.77814 431.17188 346.325Q431.17188 346.41876 431.17188 346.60626L426.53125 346.60626Q426.59375 347.6375 427.10938 348.1844Q427.625 348.71564 428.40625 348.71564Q428.98438 348.71564 429.39062 348.41876Q429.8125 348.10626 430.04688 347.45ZM426.59375 345.7469L430.0625 345.7469Q430.0 344.95 429.67188 344.5594Q429.15625 343.95 428.35938 343.95Q427.625 343.95 427.125 344.4344Q426.64062 344.91876 426.59375 345.7469ZM436.875 349.45L436.875 348.52814Q436.14062 349.59064 434.89062 349.59064Q434.34375 349.59064 433.85938 349.3875Q433.39062 349.16876 433.15625 348.85626Q432.92188 348.52814 432.82812 348.0594Q432.76562 347.7625 432.76562 347.075L432.76562 343.23126L433.82812 343.23126L433.82812 346.6844Q433.82812 347.4969 433.89062 347.79376Q433.98438 348.2 434.29688 348.45Q434.625 348.6844 435.10938 348.6844Q435.57812 348.6844 435.98438 348.45Q436.40625 348.2 436.57812 347.77814Q436.76562 347.35626 436.76562 346.5594L436.76562 343.23126L437.8125 343.23126L437.8125 349.45L436.875 349.45ZM439.78125 349.45L439.78125 343.23126L440.73438 343.23126L440.73438 344.16876Q441.09375 343.5125 441.39062 343.3094Q441.70312 343.09064 442.07812 343.09064Q442.60938 343.09064 443.15625 343.41876L442.79688 344.40314Q442.40625 344.16876 442.03125 344.16876Q441.67188 344.16876 441.39062 344.3875Q441.125 344.59064 441.01562 344.96564Q440.82812 345.52814 440.82812 346.1844L440.82812 349.45L439.78125 349.45ZM443.40625 346.34064Q443.40625 344.60626 444.35938 343.77814Q445.15625 343.09064 446.3125 343.09064Q447.59375 343.09064 448.40625 343.9344Q449.23438 344.7625 449.23438 346.2469Q449.23438 347.45 448.875 348.1375Q448.51562 348.825 447.8125 349.21564Q447.125 349.59064 446.3125 349.59064Q445.01562 349.59064 444.20312 348.7625Q443.40625 347.91876 443.40625 346.34064ZM444.48438 346.34064Q444.48438 347.52814 445.0 348.1219Q445.53125 348.71564 446.3125 348.71564Q447.10938 348.71564 447.625 348.1219Q448.14062 347.52814 448.14062 346.3094Q448.14062 345.15314 447.60938 344.5594Q447.09375 343.96564 446.3125 343.96564Q445.53125 343.96564 445.0 344.5594Q444.48438 345.1375 444.48438 346.34064ZM450.79688 351.84064L450.79688 343.23126L451.75 343.23126L451.75 344.02814Q452.09375 343.5594 452.51562 343.325Q452.95312 343.09064 453.5625 343.09064Q454.35938 343.09064 454.96875 343.4969Q455.57812 343.90314 455.875 344.65314Q456.1875 345.40314 456.1875 346.29376Q456.1875 347.2469 455.84375 348.0125Q455.51562 348.77814 454.85938 349.1844Q454.20312 349.59064 453.48438 349.59064Q452.95312 349.59064 452.53125 349.3719Q452.10938 349.1375 451.84375 348.8094L451.84375 351.84064L450.79688 351.84064ZM451.75 346.3719Q451.75 347.575 452.23438 348.15314Q452.71875 348.71564 453.40625 348.71564Q454.10938 348.71564 454.60938 348.1219Q455.10938 347.52814 455.10938 346.27814Q455.10938 345.09064 454.625 344.5125Q454.14062 343.91876 453.45312 343.91876Q452.78125 343.91876 452.26562 344.54376Q451.75 345.16876 451.75 346.3719ZM461.85938 348.6844Q461.26562 349.1844 460.71875 349.3875Q460.1875 349.59064 459.5625 349.59064Q458.53125 349.59064 457.98438 349.09064Q457.4375 348.59064 457.4375 347.8094Q457.4375 347.35626 457.64062 346.98126Q457.84375 346.59064 458.1875 346.3719Q458.53125 346.1375 458.95312 346.02814Q459.25 345.9344 459.89062 345.85626Q461.15625 345.71564 461.76562 345.4969Q461.76562 345.27814 461.76562 345.23126Q461.76562 344.575 461.46875 344.3094Q461.0625 343.96564 460.26562 343.96564Q459.53125 343.96564 459.17188 344.23126Q458.8125 344.48126 458.64062 345.1375L457.60938 344.9969Q457.75 344.34064 458.07812 343.9344Q458.40625 343.52814 459.01562 343.3094Q459.625 343.09064 460.42188 343.09064Q461.21875 343.09064 461.71875 343.27814Q462.21875 343.46564 462.45312 343.7469Q462.6875 344.02814 462.78125 344.46564Q462.82812 344.73126 462.82812 345.4344L462.82812 346.84064Q462.82812 348.3094 462.89062 348.7Q462.96875 349.09064 463.17188 349.45L462.0625 349.45Q461.90625 349.1219 461.85938 348.6844ZM461.76562 346.325Q461.1875 346.5594 460.04688 346.73126Q459.39062 346.825 459.125 346.95Q458.85938 347.0594 458.70312 347.27814Q458.5625 347.4969 458.5625 347.77814Q458.5625 348.2 458.875 348.48126Q459.20312 348.7625 459.8125 348.7625Q460.42188 348.7625 460.89062 348.4969Q461.375 348.23126 461.59375 347.7625Q461.76562 347.40314 461.76562 346.71564L461.76562 346.325ZM465.09375 349.45L465.09375 348.2469L466.29688 348.2469L466.29688 349.45L465.09375 349.45ZM472.04688 347.45L473.14062 347.575Q472.89062 348.52814 472.1875 349.0594Q471.48438 349.59064 470.40625 349.59064Q469.04688 349.59064 468.23438 348.7469Q467.4375 347.90314 467.4375 346.3875Q467.4375 344.825 468.25 343.96564Q469.0625 343.09064 470.34375 343.09064Q471.59375 343.09064 472.375 343.9344Q473.17188 344.77814 473.17188 346.325Q473.17188 346.41876 473.17188 346.60626L468.53125 346.60626Q468.59375 347.6375 469.10938 348.1844Q469.625 348.71564 470.40625 348.71564Q470.98438 348.71564 471.39062 348.41876Q471.8125 348.10626 472.04688 347.45ZM468.59375 345.7469L472.0625 345.7469Q472.0 344.95 471.67188 344.5594Q471.15625 343.95 470.35938 343.95Q469.625 343.95 469.125 344.4344Q468.64062 344.91876 468.59375 345.7469ZM478.875 349.45L478.875 348.52814Q478.14062 349.59064 476.89062 349.59064Q476.34375 349.59064 475.85938 349.3875Q475.39062 349.16876 475.15625 348.85626Q474.92188 348.52814 474.82812 348.0594Q474.76562 347.7625 474.76562 347.075L474.76562 343.23126L475.82812 343.23126L475.82812 346.6844Q475.82812 347.4969 475.89062 347.79376Q475.98438 348.2 476.29688 348.45Q476.625 348.6844 477.10938 348.6844Q477.57812 348.6844 477.98438 348.45Q478.40625 348.2 478.57812 347.77814Q478.76562 347.35626 478.76562 346.5594L478.76562 343.23126L479.8125 343.23126L479.8125 349.45L478.875 349.45ZM481.0 349.59064L483.48438 340.71564L484.32812 340.71564L481.84375 349.59064L481.0 349.59064ZM488.82812 349.45L488.82812 348.66876Q488.23438 349.59064 487.09375 349.59064Q486.34375 349.59064 485.71875 349.1844Q485.09375 348.7625 484.75 348.02814Q484.40625 347.29376 484.40625 346.34064Q484.40625 345.41876 484.71875 344.65314Q485.03125 343.8875 485.65625 343.4969Q486.28125 343.09064 487.04688 343.09064Q487.60938 343.09064 488.04688 343.325Q488.48438 343.5594 488.76562 343.9344L488.76562 340.85626L489.8125 340.85626L489.8125 349.45L488.82812 349.45ZM485.5 346.34064Q485.5 347.54376 486.0 348.1375Q486.5 348.71564 487.1875 348.71564Q487.875 348.71564 488.35938 348.15314Q488.84375 347.59064 488.84375 346.4344Q488.84375 345.15314 488.34375 344.5594Q487.85938 343.96564 487.14062 343.96564Q486.4375 343.96564 485.96875 344.54376Q485.5 345.10626 485.5 346.34064ZM495.85938 348.6844Q495.26562 349.1844 494.71875 349.3875Q494.1875 349.59064 493.5625 349.59064Q492.53125 349.59064 491.98438 349.09064Q491.4375 348.59064 491.4375 347.8094Q491.4375 347.35626 491.64062 346.98126Q491.84375 346.59064 492.1875 346.3719Q492.53125 346.1375 492.95312 346.02814Q493.25 345.9344 493.89062 345.85626Q495.15625 345.71564 495.76562 345.4969Q495.76562 345.27814 495.76562 345.23126Q495.76562 344.575 495.46875 344.3094Q495.0625 343.96564 494.26562 343.96564Q493.53125 343.96564 493.17188 344.23126Q492.8125 344.48126 492.64062 345.1375L491.60938 344.9969Q491.75 344.34064 492.07812 343.9344Q492.40625 343.52814 493.01562 343.3094Q493.625 343.09064 494.42188 343.09064Q495.21875 343.09064 495.71875 343.27814Q496.21875 343.46564 496.45312 343.7469Q496.6875 344.02814 496.78125 344.46564Q496.82812 344.73126 496.82812 345.4344L496.82812 346.84064Q496.82812 348.3094 496.89062 348.7Q496.96875 349.09064 497.17188 349.45L496.0625 349.45Q495.90625 349.1219 495.85938 348.6844ZM495.76562 346.325Q495.1875 346.5594 494.04688 346.73126Q493.39062 346.825 493.125 346.95Q492.85938 347.0594 492.70312 347.27814Q492.5625 347.4969 492.5625 347.77814Q492.5625 348.2 492.875 348.48126Q493.20312 348.7625 493.8125 348.7625Q494.42188 348.7625 494.89062 348.4969Q495.375 348.23126 495.59375 347.7625Q495.76562 347.40314 495.76562 346.71564L495.76562 346.325ZM501.09375 348.5125L501.25 349.4344Q500.79688 349.52814 500.45312 349.52814Q499.875 349.52814 499.5625 349.35626Q499.25 349.16876 499.10938 348.8719Q498.98438 348.575 498.98438 347.6219L498.98438 344.04376L498.21875 344.04376L498.21875 343.23126L498.98438 343.23126L498.98438 341.6844L500.03125 341.0594L500.03125 343.23126L501.09375 343.23126L501.09375 344.04376L500.03125 344.04376L500.03125 347.6844Q500.03125 348.1375 500.07812 348.2625Q500.14062 348.3875 500.26562 348.46564Q500.39062 348.54376 500.625 348.54376Q500.8125 348.54376 501.09375 348.5125ZM505.85938 348.6844Q505.26562 349.1844 504.71875 349.3875Q504.1875 349.59064 503.5625 349.59064Q502.53125 349.59064 501.98438 349.09064Q501.4375 348.59064 501.4375 347.8094Q501.4375 347.35626 501.64062 346.98126Q501.84375 346.59064 502.1875 346.3719Q502.53125 346.1375 502.95312 346.02814Q503.25 345.9344 503.89062 345.85626Q505.15625 345.71564 505.76562 345.4969Q505.76562 345.27814 505.76562 345.23126Q505.76562 344.575 505.46875 344.3094Q505.0625 343.96564 504.26562 343.96564Q503.53125 343.96564 503.17188 344.23126Q502.8125 344.48126 502.64062 345.1375L501.60938 344.9969Q501.75 344.34064 502.07812 343.9344Q502.40625 343.52814 503.01562 343.3094Q503.625 343.09064 504.42188 343.09064Q505.21875 343.09064 505.71875 343.27814Q506.21875 343.46564 506.45312 343.7469Q506.6875 344.02814 506.78125 344.46564Q506.82812 344.73126 506.82812 345.4344L506.82812 346.84064Q506.82812 348.3094 506.89062 348.7Q506.96875 349.09064 507.17188 349.45L506.0625 349.45Q505.90625 349.1219 505.85938 348.6844ZM505.76562 346.325Q505.1875 346.5594 504.04688 346.73126Q503.39062 346.825 503.125 346.95Q502.85938 347.0594 502.70312 347.27814Q502.5625 347.4969 502.5625 347.77814Q502.5625 348.2 502.875 348.48126Q503.20312 348.7625 503.8125 348.7625Q504.42188 348.7625 504.89062 348.4969Q505.375 348.23126 505.59375 347.7625Q505.76562 347.40314 505.76562 346.71564L505.76562 346.325ZM508.375 347.59064L509.40625 347.4344Q509.5 348.0594 509.89062 348.3875Q510.29688 348.71564 511.03125 348.71564Q511.75 348.71564 512.09375 348.4344Q512.4531 348.1375 512.4531 347.73126Q512.4531 347.3719 512.1406 347.16876Q511.92188 347.02814 511.0625 346.8094Q509.90625 346.5125 509.45312 346.3094Q509.01562 346.09064 508.78125 345.71564Q508.54688 345.34064 508.54688 344.8719Q508.54688 344.46564 508.73438 344.10626Q508.92188 343.7469 509.25 343.5125Q509.5 343.34064 509.92188 343.21564Q510.34375 343.09064 510.84375 343.09064Q511.5625 343.09064 512.1094 343.3094Q512.6719 343.5125 512.9375 343.8719Q513.2031 344.23126 513.2969 344.825L512.2656 344.96564Q512.2031 344.4969 511.85938 344.23126Q511.53125 343.95 510.90625 343.95Q510.1875 343.95 509.875 344.2Q509.5625 344.4344 509.5625 344.7625Q509.5625 344.96564 509.6875 345.1219Q509.82812 345.29376 510.09375 345.40314Q510.25 345.46564 511.03125 345.66876Q512.15625 345.98126 512.59375 346.16876Q513.03125 346.35626 513.28125 346.71564Q513.53125 347.075 513.53125 347.6219Q513.53125 348.15314 513.21875 348.6219Q512.9219 349.075 512.34375 349.34064Q511.76562 349.59064 511.03125 349.59064Q509.8125 349.59064 509.17188 349.09064Q508.54688 348.575 508.375 347.59064ZM520.0469 347.45L521.1406 347.575Q520.8906 348.52814 520.1875 349.0594Q519.4844 349.59064 518.40625 349.59064Q517.0469 349.59064 516.2344 348.7469Q515.4375 347.90314 515.4375 346.3875Q515.4375 344.825 516.25 343.96564Q517.0625 343.09064 518.34375 343.09064Q519.59375 343.09064 520.375 343.9344Q521.1719 344.77814 521.1719 346.325Q521.1719 346.41876 521.1719 346.60626L516.53125 346.60626Q516.59375 347.6375 517.1094 348.1844Q517.625 348.71564 518.40625 348.71564Q518.9844 348.71564 519.3906 348.41876Q519.8125 348.10626 520.0469 347.45ZM516.59375 345.7469L520.0625 345.7469Q520.0 344.95 519.6719 344.5594Q519.15625 343.95 518.3594 343.95Q517.625 343.95 517.125 344.4344Q516.6406 344.91876 516.59375 345.7469ZM525.09375 348.5125L525.25 349.4344Q524.7969 349.52814 524.4531 349.52814Q523.875 349.52814 523.5625 349.35626Q523.25 349.16876 523.1094 348.8719Q522.9844 348.575 522.9844 347.6219L522.9844 344.04376L522.21875 344.04376L522.21875 343.23126L522.9844 343.23126L522.9844 341.6844L524.03125 341.0594L524.03125 343.23126L525.09375 343.23126L525.09375 344.04376L524.03125 344.04376L524.03125 347.6844Q524.03125 348.1375 524.0781 348.2625Q524.1406 348.3875 524.2656 348.46564Q524.3906 348.54376 524.625 348.54376Q524.8125 348.54376 525.09375 348.5125Z" fill-rule="nonzero"/></svg>