<?xml version="1.0" encoding="utf-8" standalone="no"?>
<!DOCTYPE svg PUBLIC "-//W3C//DTD SVG 1.1//EN"
  "http://www.w3.org/Graphics/SVG/1.1/DTD/svg11.dtd">
<svg xmlns:xlink="http://www.w3.org/1999/xlink" width="460.8pt" height="345.6pt" viewBox="0 0 460.8 345.6" xmlns="http://www.w3.org/2000/svg" version="1.1">
 <metadata>
  <rdf:RDF xmlns:dc="http://purl.org/dc/elements/1.1/" xmlns:cc="http://creativecommons.org/ns#" xmlns:rdf="http://www.w3.org/1999/02/22-rdf-syntax-ns#">
   <cc:Work>
    <dc:type rdf:resource="http://purl.org/dc/dcmitype/StillImage"/>
    <dc:date>2023-01-15T18:55:42.003991</dc:date>
    <dc:format>image/svg+xml</dc:format>
    <dc:creator>
     <cc:Agent>
      <dc:title>Matplotlib v3.5.3, https://matplotlib.org/</dc:title>
     </cc:Agent>
    </dc:creator>
   </cc:Work>
  </rdf:RDF>
 </metadata>
 <defs>
  <style type="text/css">*{stroke-linejoin: round; stroke-linecap: butt}</style>
 </defs>
 <g id="figure_1">
  <g id="patch_1">
   <path d="M 0 345.6 
L 460.8 345.6 
L 460.8 0 
L 0 0 
z
" style="fill: #ffffff"/>
  </g>
  <g id="axes_1">
   <g id="patch_2">
    <path d="M 96.768 307.584 
L 414.72 307.584 
L 414.72 41.472 
L 96.768 41.472 
z
" style="fill: #ffffff"/>
   </g>
   <g id="patch_3">
    <path d="M 96.768 42.80256 
L 399.579429 42.80256 
L 399.579429 53.44704 
L 96.768 53.44704 
z
" clip-path="url(#pf8a9dc7a94)" style="fill: #e1d6c7"/>
   </g>
   <g id="patch_4">
    <path d="M 96.768 56.10816 
L 298.642286 56.10816 
L 298.642286 66.75264 
L 96.768 66.75264 
z
" clip-path="url(#pf8a9dc7a94)" style="fill: #dbccbc"/>
   </g>
   <g id="patch_5">
    <path d="M 96.768 69.41376 
L 197.705143 69.41376 
L 197.705143 80.05824 
L 96.768 80.05824 
z
" clip-path="url(#pf8a9dc7a94)" style="fill: #d5c1b1"/>
   </g>
   <g id="patch_6">
    <path d="M 96.768 82.71936 
L 197.705143 82.71936 
L 197.705143 93.36384 
L 96.768 93.36384 
z
" clip-path="url(#pf8a9dc7a94)" style="fill: #d0b7a8"/>
   </g>
   <g id="patch_7">
    <path d="M 96.768 96.02496 
L 197.705143 96.02496 
L 197.705143 106.66944 
L 96.768 106.66944 
z
" clip-path="url(#pf8a9dc7a94)" style="fill: #caac9f"/>
   </g>
   <g id="patch_8">
    <path d="M 96.768 109.33056 
L 197.705143 109.33056 
L 197.705143 119.97504 
L 96.768 119.97504 
z
" clip-path="url(#pf8a9dc7a94)" style="fill: #c5a297"/>
   </g>
   <g id="patch_9">
    <path d="M 96.768 122.63616 
L 197.705143 122.63616 
L 197.705143 133.28064 
L 96.768 133.28064 
z
" clip-path="url(#pf8a9dc7a94)" style="fill: #bf9891"/>
   </g>
   <g id="patch_10">
    <path d="M 96.768 135.94176 
L 197.705143 135.94176 
L 197.705143 146.58624 
L 96.768 146.58624 
z
" clip-path="url(#pf8a9dc7a94)" style="fill: #b98d8a"/>
   </g>
   <g id="patch_11">
    <path d="M 96.768 149.24736 
L 197.705143 149.24736 
L 197.705143 159.89184 
L 96.768 159.89184 
z
" clip-path="url(#pf8a9dc7a94)" style="fill: #b28384"/>
   </g>
   <g id="patch_12">
    <path d="M 96.768 162.55296 
L 197.705143 162.55296 
L 197.705143 173.19744 
L 96.768 173.19744 
z
" clip-path="url(#pf8a9dc7a94)" style="fill: #a9787e"/>
   </g>
   <g id="patch_13">
    <path d="M 96.768 175.85856 
L 197.705143 175.85856 
L 197.705143 186.50304 
L 96.768 186.50304 
z
" clip-path="url(#pf8a9dc7a94)" style="fill: #a06e78"/>
   </g>
   <g id="patch_14">
    <path d="M 96.768 189.16416 
L 197.705143 189.16416 
L 197.705143 199.80864 
L 96.768 199.80864 
z
" clip-path="url(#pf8a9dc7a94)" style="fill: #966371"/>
   </g>
   <g id="patch_15">
    <path d="M 96.768 202.46976 
L 197.705143 202.46976 
L 197.705143 213.11424 
L 96.768 213.11424 
z
" clip-path="url(#pf8a9dc7a94)" style="fill: #8c5a6b"/>
   </g>
   <g id="patch_16">
    <path d="M 96.768 215.77536 
L 197.705143 215.77536 
L 197.705143 226.41984 
L 96.768 226.41984 
z
" clip-path="url(#pf8a9dc7a94)" style="fill: #805065"/>
   </g>
   <g id="patch_17">
    <path d="M 96.768 229.08096 
L 197.705143 229.08096 
L 197.705143 239.72544 
L 96.768 239.72544 
z
" clip-path="url(#pf8a9dc7a94)" style="fill: #74475e"/>
   </g>
   <g id="patch_18">
    <path d="M 96.768 242.38656 
L 197.705143 242.38656 
L 197.705143 253.03104 
L 96.768 253.03104 
z
" clip-path="url(#pf8a9dc7a94)" style="fill: #683f57"/>
   </g>
   <g id="patch_19">
    <path d="M 96.768 255.69216 
L 197.705143 255.69216 
L 197.705143 266.33664 
L 96.768 266.33664 
z
" clip-path="url(#pf8a9dc7a94)" style="fill: #5b364f"/>
   </g>
   <g id="patch_20">
    <path d="M 96.768 268.99776 
L 197.705143 268.99776 
L 197.705143 279.64224 
L 96.768 279.64224 
z
" clip-path="url(#pf8a9dc7a94)" style="fill: #4e2e46"/>
   </g>
   <g id="patch_21">
    <path d="M 96.768 282.30336 
L 197.705143 282.30336 
L 197.705143 292.94784 
L 96.768 292.94784 
z
" clip-path="url(#pf8a9dc7a94)" style="fill: #40253c"/>
   </g>
   <g id="patch_22">
    <path d="M 96.768 295.60896 
L 197.705143 295.60896 
L 197.705143 306.25344 
L 96.768 306.25344 
z
" clip-path="url(#pf8a9dc7a94)" style="fill: #331e33"/>
   </g>
   <g id="matplotlib.axis_1">
    <g id="xtick_1">
     <g id="line2d_1">
      <defs>
       <path id="mf144e8d1ea" d="M 0 0 
L 0 3.5 
" style="stroke: #000000; stroke-width: 0.8"/>
      </defs>
      <g>
       <use xlink:href="#mf144e8d1ea" x="96.768" y="307.584" style="stroke: #000000; stroke-width: 0.8"/>
      </g>
     </g>
     <g id="text_1">
      <!-- 0.0 -->
      <g transform="translate(88.816438 322.182437)scale(0.1 -0.1)">
       <defs>
        <path id="DejaVuSans-30" d="M 2034 4250 
Q 1547 4250 1301 3770 
Q 1056 3291 1056 2328 
Q 1056 1369 1301 889 
Q 1547 409 2034 409 
Q 2525 409 2770 889 
Q 3016 1369 3016 2328 
Q 3016 3291 2770 3770 
Q 2525 4250 2034 4250 
z
M 2034 4750 
Q 2819 4750 3233 4129 
Q 3647 3509 3647 2328 
Q 3647 1150 3233 529 
Q 2819 -91 2034 -91 
Q 1250 -91 836 529 
Q 422 1150 422 2328 
Q 422 3509 836 4129 
Q 1250 4750 2034 4750 
z
" transform="scale(0.015625)"/>
        <path id="DejaVuSans-2e" d="M 684 794 
L 1344 794 
L 1344 0 
L 684 0 
L 684 794 
z
" transform="scale(0.015625)"/>
       </defs>
       <use xlink:href="#DejaVuSans-30"/>
       <use xlink:href="#DejaVuSans-2e" x="63.623047"/>
       <use xlink:href="#DejaVuSans-30" x="95.410156"/>
      </g>
     </g>
    </g>
    <g id="xtick_2">
     <g id="line2d_2">
      <g>
       <use xlink:href="#mf144e8d1ea" x="147.236571" y="307.584" style="stroke: #000000; stroke-width: 0.8"/>
      </g>
     </g>
     <g id="text_2">
      <!-- 0.5 -->
      <g transform="translate(139.285009 322.182437)scale(0.1 -0.1)">
       <defs>
        <path id="DejaVuSans-35" d="M 691 4666 
L 3169 4666 
L 3169 4134 
L 1269 4134 
L 1269 2991 
Q 1406 3038 1543 3061 
Q 1681 3084 1819 3084 
Q 2600 3084 3056 2656 
Q 3513 2228 3513 1497 
Q 3513 744 3044 326 
Q 2575 -91 1722 -91 
Q 1428 -91 1123 -41 
Q 819 9 494 109 
L 494 744 
Q 775 591 1075 516 
Q 1375 441 1709 441 
Q 2250 441 2565 725 
Q 2881 1009 2881 1497 
Q 2881 1984 2565 2268 
Q 2250 2553 1709 2553 
Q 1456 2553 1204 2497 
Q 953 2441 691 2322 
L 691 4666 
z
" transform="scale(0.015625)"/>
       </defs>
       <use xlink:href="#DejaVuSans-30"/>
       <use xlink:href="#DejaVuSans-2e" x="63.623047"/>
       <use xlink:href="#DejaVuSans-35" x="95.410156"/>
      </g>
     </g>
    </g>
    <g id="xtick_3">
     <g id="line2d_3">
      <g>
       <use xlink:href="#mf144e8d1ea" x="197.705143" y="307.584" style="stroke: #000000; stroke-width: 0.8"/>
      </g>
     </g>
     <g id="text_3">
      <!-- 1.0 -->
      <g transform="translate(189.75358 322.182437)scale(0.1 -0.1)">
       <defs>
        <path id="DejaVuSans-31" d="M 794 531 
L 1825 531 
L 1825 4091 
L 703 3866 
L 703 4441 
L 1819 4666 
L 2450 4666 
L 2450 531 
L 3481 531 
L 3481 0 
L 794 0 
L 794 531 
z
" transform="scale(0.015625)"/>
       </defs>
       <use xlink:href="#DejaVuSans-31"/>
       <use xlink:href="#DejaVuSans-2e" x="63.623047"/>
       <use xlink:href="#DejaVuSans-30" x="95.410156"/>
      </g>
     </g>
    </g>
    <g id="xtick_4">
     <g id="line2d_4">
      <g>
       <use xlink:href="#mf144e8d1ea" x="248.173714" y="307.584" style="stroke: #000000; stroke-width: 0.8"/>
      </g>
     </g>
     <g id="text_4">
      <!-- 1.5 -->
      <g transform="translate(240.222152 322.182437)scale(0.1 -0.1)">
       <use xlink:href="#DejaVuSans-31"/>
       <use xlink:href="#DejaVuSans-2e" x="63.623047"/>
       <use xlink:href="#DejaVuSans-35" x="95.410156"/>
      </g>
     </g>
    </g>
    <g id="xtick_5">
     <g id="line2d_5">
      <g>
       <use xlink:href="#mf144e8d1ea" x="298.642286" y="307.584" style="stroke: #000000; stroke-width: 0.8"/>
      </g>
     </g>
     <g id="text_5">
      <!-- 2.0 -->
      <g transform="translate(290.690723 322.182437)scale(0.1 -0.1)">
       <defs>
        <path id="DejaVuSans-32" d="M 1228 531 
L 3431 531 
L 3431 0 
L 469 0 
L 469 531 
Q 828 903 1448 1529 
Q 2069 2156 2228 2338 
Q 2531 2678 2651 2914 
Q 2772 3150 2772 3378 
Q 2772 3750 2511 3984 
Q 2250 4219 1831 4219 
Q 1534 4219 1204 4116 
Q 875 4013 500 3803 
L 500 4441 
Q 881 4594 1212 4672 
Q 1544 4750 1819 4750 
Q 2544 4750 2975 4387 
Q 3406 4025 3406 3419 
Q 3406 3131 3298 2873 
Q 3191 2616 2906 2266 
Q 2828 2175 2409 1742 
Q 1991 1309 1228 531 
z
" transform="scale(0.015625)"/>
       </defs>
       <use xlink:href="#DejaVuSans-32"/>
       <use xlink:href="#DejaVuSans-2e" x="63.623047"/>
       <use xlink:href="#DejaVuSans-30" x="95.410156"/>
      </g>
     </g>
    </g>
    <g id="xtick_6">
     <g id="line2d_6">
      <g>
       <use xlink:href="#mf144e8d1ea" x="349.110857" y="307.584" style="stroke: #000000; stroke-width: 0.8"/>
      </g>
     </g>
     <g id="text_6">
      <!-- 2.5 -->
      <g transform="translate(341.159295 322.182437)scale(0.1 -0.1)">
       <use xlink:href="#DejaVuSans-32"/>
       <use xlink:href="#DejaVuSans-2e" x="63.623047"/>
       <use xlink:href="#DejaVuSans-35" x="95.410156"/>
      </g>
     </g>
    </g>
    <g id="xtick_7">
     <g id="line2d_7">
      <g>
       <use xlink:href="#mf144e8d1ea" x="399.579429" y="307.584" style="stroke: #000000; stroke-width: 0.8"/>
      </g>
     </g>
     <g id="text_7">
      <!-- 3.0 -->
      <g transform="translate(391.627866 322.182437)scale(0.1 -0.1)">
       <defs>
        <path id="DejaVuSans-33" d="M 2597 2516 
Q 3050 2419 3304 2112 
Q 3559 1806 3559 1356 
Q 3559 666 3084 287 
Q 2609 -91 1734 -91 
Q 1441 -91 1130 -33 
Q 819 25 488 141 
L 488 750 
Q 750 597 1062 519 
Q 1375 441 1716 441 
Q 2309 441 2620 675 
Q 2931 909 2931 1356 
Q 2931 1769 2642 2001 
Q 2353 2234 1838 2234 
L 1294 2234 
L 1294 2753 
L 1863 2753 
Q 2328 2753 2575 2939 
Q 2822 3125 2822 3475 
Q 2822 3834 2567 4026 
Q 2313 4219 1838 4219 
Q 1578 4219 1281 4162 
Q 984 4106 628 3988 
L 628 4550 
Q 988 4650 1302 4700 
Q 1616 4750 1894 4750 
Q 2613 4750 3031 4423 
Q 3450 4097 3450 3541 
Q 3450 3153 3228 2886 
Q 3006 2619 2597 2516 
z
" transform="scale(0.015625)"/>
       </defs>
       <use xlink:href="#DejaVuSans-33"/>
       <use xlink:href="#DejaVuSans-2e" x="63.623047"/>
       <use xlink:href="#DejaVuSans-30" x="95.410156"/>
      </g>
     </g>
    </g>
    <g id="text_8">
     <!-- num -->
     <g transform="translate(244.536188 335.860562)scale(0.1 -0.1)">
      <defs>
       <path id="DejaVuSans-6e" d="M 3513 2113 
L 3513 0 
L 2938 0 
L 2938 2094 
Q 2938 2591 2744 2837 
Q 2550 3084 2163 3084 
Q 1697 3084 1428 2787 
Q 1159 2491 1159 1978 
L 1159 0 
L 581 0 
L 581 3500 
L 1159 3500 
L 1159 2956 
Q 1366 3272 1645 3428 
Q 1925 3584 2291 3584 
Q 2894 3584 3203 3211 
Q 3513 2838 3513 2113 
z
" transform="scale(0.015625)"/>
       <path id="DejaVuSans-75" d="M 544 1381 
L 544 3500 
L 1119 3500 
L 1119 1403 
Q 1119 906 1312 657 
Q 1506 409 1894 409 
Q 2359 409 2629 706 
Q 2900 1003 2900 1516 
L 2900 3500 
L 3475 3500 
L 3475 0 
L 2900 0 
L 2900 538 
Q 2691 219 2414 64 
Q 2138 -91 1772 -91 
Q 1169 -91 856 284 
Q 544 659 544 1381 
z
M 1991 3584 
L 1991 3584 
z
" transform="scale(0.015625)"/>
       <path id="DejaVuSans-6d" d="M 3328 2828 
Q 3544 3216 3844 3400 
Q 4144 3584 4550 3584 
Q 5097 3584 5394 3201 
Q 5691 2819 5691 2113 
L 5691 0 
L 5113 0 
L 5113 2094 
Q 5113 2597 4934 2840 
Q 4756 3084 4391 3084 
Q 3944 3084 3684 2787 
Q 3425 2491 3425 1978 
L 3425 0 
L 2847 0 
L 2847 2094 
Q 2847 2600 2669 2842 
Q 2491 3084 2119 3084 
Q 1678 3084 1418 2786 
Q 1159 2488 1159 1978 
L 1159 0 
L 581 0 
L 581 3500 
L 1159 3500 
L 1159 2956 
Q 1356 3278 1631 3431 
Q 1906 3584 2284 3584 
Q 2666 3584 2933 3390 
Q 3200 3197 3328 2828 
z
" transform="scale(0.015625)"/>
      </defs>
      <use xlink:href="#DejaVuSans-6e"/>
      <use xlink:href="#DejaVuSans-75" x="63.378906"/>
      <use xlink:href="#DejaVuSans-6d" x="126.757812"/>
     </g>
    </g>
   </g>
   <g id="matplotlib.axis_2">
    <g id="ytick_1">
     <g id="line2d_8">
      <defs>
       <path id="md3e082d4e5" d="M 0 0 
L -3.5 0 
" style="stroke: #000000; stroke-width: 0.8"/>
      </defs>
      <g>
       <use xlink:href="#md3e082d4e5" x="96.768" y="48.1248" style="stroke: #000000; stroke-width: 0.8"/>
      </g>
     </g>
     <g id="text_9">
      <!-- http -->
      <g transform="translate(69.241438 51.924019)scale(0.1 -0.1)">
       <defs>
        <path id="DejaVuSans-68" d="M 3513 2113 
L 3513 0 
L 2938 0 
L 2938 2094 
Q 2938 2591 2744 2837 
Q 2550 3084 2163 3084 
Q 1697 3084 1428 2787 
Q 1159 2491 1159 1978 
L 1159 0 
L 581 0 
L 581 4863 
L 1159 4863 
L 1159 2956 
Q 1366 3272 1645 3428 
Q 1925 3584 2291 3584 
Q 2894 3584 3203 3211 
Q 3513 2838 3513 2113 
z
" transform="scale(0.015625)"/>
        <path id="DejaVuSans-74" d="M 1172 4494 
L 1172 3500 
L 2356 3500 
L 2356 3053 
L 1172 3053 
L 1172 1153 
Q 1172 725 1289 603 
Q 1406 481 1766 481 
L 2356 481 
L 2356 0 
L 1766 0 
Q 1100 0 847 248 
Q 594 497 594 1153 
L 594 3053 
L 172 3053 
L 172 3500 
L 594 3500 
L 594 4494 
L 1172 4494 
z
" transform="scale(0.015625)"/>
        <path id="DejaVuSans-70" d="M 1159 525 
L 1159 -1331 
L 581 -1331 
L 581 3500 
L 1159 3500 
L 1159 2969 
Q 1341 3281 1617 3432 
Q 1894 3584 2278 3584 
Q 2916 3584 3314 3078 
Q 3713 2572 3713 1747 
Q 3713 922 3314 415 
Q 2916 -91 2278 -91 
Q 1894 -91 1617 61 
Q 1341 213 1159 525 
z
M 3116 1747 
Q 3116 2381 2855 2742 
Q 2594 3103 2138 3103 
Q 1681 3103 1420 2742 
Q 1159 2381 1159 1747 
Q 1159 1113 1420 752 
Q 1681 391 2138 391 
Q 2594 391 2855 752 
Q 3116 1113 3116 1747 
z
" transform="scale(0.015625)"/>
       </defs>
       <use xlink:href="#DejaVuSans-68"/>
       <use xlink:href="#DejaVuSans-74" x="63.378906"/>
       <use xlink:href="#DejaVuSans-74" x="102.587891"/>
       <use xlink:href="#DejaVuSans-70" x="141.796875"/>
      </g>
     </g>
    </g>
    <g id="ytick_2">
     <g id="line2d_9">
      <g>
       <use xlink:href="#md3e082d4e5" x="96.768" y="61.4304" style="stroke: #000000; stroke-width: 0.8"/>
      </g>
     </g>
     <g id="text_10">
      <!-- data -->
      <g transform="translate(67.243 65.229619)scale(0.1 -0.1)">
       <defs>
        <path id="DejaVuSans-64" d="M 2906 2969 
L 2906 4863 
L 3481 4863 
L 3481 0 
L 2906 0 
L 2906 525 
Q 2725 213 2448 61 
Q 2172 -91 1784 -91 
Q 1150 -91 751 415 
Q 353 922 353 1747 
Q 353 2572 751 3078 
Q 1150 3584 1784 3584 
Q 2172 3584 2448 3432 
Q 2725 3281 2906 2969 
z
M 947 1747 
Q 947 1113 1208 752 
Q 1469 391 1925 391 
Q 2381 391 2643 752 
Q 2906 1113 2906 1747 
Q 2906 2381 2643 2742 
Q 2381 3103 1925 3103 
Q 1469 3103 1208 2742 
Q 947 2381 947 1747 
z
" transform="scale(0.015625)"/>
        <path id="DejaVuSans-61" d="M 2194 1759 
Q 1497 1759 1228 1600 
Q 959 1441 959 1056 
Q 959 750 1161 570 
Q 1363 391 1709 391 
Q 2188 391 2477 730 
Q 2766 1069 2766 1631 
L 2766 1759 
L 2194 1759 
z
M 3341 1997 
L 3341 0 
L 2766 0 
L 2766 531 
Q 2569 213 2275 61 
Q 1981 -91 1556 -91 
Q 1019 -91 701 211 
Q 384 513 384 1019 
Q 384 1609 779 1909 
Q 1175 2209 1959 2209 
L 2766 2209 
L 2766 2266 
Q 2766 2663 2505 2880 
Q 2244 3097 1772 3097 
Q 1472 3097 1187 3025 
Q 903 2953 641 2809 
L 641 3341 
Q 956 3463 1253 3523 
Q 1550 3584 1831 3584 
Q 2591 3584 2966 3190 
Q 3341 2797 3341 1997 
z
" transform="scale(0.015625)"/>
       </defs>
       <use xlink:href="#DejaVuSans-64"/>
       <use xlink:href="#DejaVuSans-61" x="63.476562"/>
       <use xlink:href="#DejaVuSans-74" x="124.755859"/>
       <use xlink:href="#DejaVuSans-61" x="163.964844"/>
      </g>
     </g>
    </g>
    <g id="ytick_3">
     <g id="line2d_10">
      <g>
       <use xlink:href="#md3e082d4e5" x="96.768" y="74.736" style="stroke: #000000; stroke-width: 0.8"/>
      </g>
     </g>
     <g id="text_11">
      <!-- //data.europa.eu/data/datasets/cosmetic-ingredient-database-2-list-of-substances-prohibited-in-cosmetic-products -->
      <g transform="translate(-482.755437 78.535219)scale(0.1 -0.1)">
       <defs>
        <path id="DejaVuSans-2f" d="M 1625 4666 
L 2156 4666 
L 531 -594 
L 0 -594 
L 1625 4666 
z
" transform="scale(0.015625)"/>
        <path id="DejaVuSans-65" d="M 3597 1894 
L 3597 1613 
L 953 1613 
Q 991 1019 1311 708 
Q 1631 397 2203 397 
Q 2534 397 2845 478 
Q 3156 559 3463 722 
L 3463 178 
Q 3153 47 2828 -22 
Q 2503 -91 2169 -91 
Q 1331 -91 842 396 
Q 353 884 353 1716 
Q 353 2575 817 3079 
Q 1281 3584 2069 3584 
Q 2775 3584 3186 3129 
Q 3597 2675 3597 1894 
z
M 3022 2063 
Q 3016 2534 2758 2815 
Q 2500 3097 2075 3097 
Q 1594 3097 1305 2825 
Q 1016 2553 972 2059 
L 3022 2063 
z
" transform="scale(0.015625)"/>
        <path id="DejaVuSans-72" d="M 2631 2963 
Q 2534 3019 2420 3045 
Q 2306 3072 2169 3072 
Q 1681 3072 1420 2755 
Q 1159 2438 1159 1844 
L 1159 0 
L 581 0 
L 581 3500 
L 1159 3500 
L 1159 2956 
Q 1341 3275 1631 3429 
Q 1922 3584 2338 3584 
Q 2397 3584 2469 3576 
Q 2541 3569 2628 3553 
L 2631 2963 
z
" transform="scale(0.015625)"/>
        <path id="DejaVuSans-6f" d="M 1959 3097 
Q 1497 3097 1228 2736 
Q 959 2375 959 1747 
Q 959 1119 1226 758 
Q 1494 397 1959 397 
Q 2419 397 2687 759 
Q 2956 1122 2956 1747 
Q 2956 2369 2687 2733 
Q 2419 3097 1959 3097 
z
M 1959 3584 
Q 2709 3584 3137 3096 
Q 3566 2609 3566 1747 
Q 3566 888 3137 398 
Q 2709 -91 1959 -91 
Q 1206 -91 779 398 
Q 353 888 353 1747 
Q 353 2609 779 3096 
Q 1206 3584 1959 3584 
z
" transform="scale(0.015625)"/>
        <path id="DejaVuSans-73" d="M 2834 3397 
L 2834 2853 
Q 2591 2978 2328 3040 
Q 2066 3103 1784 3103 
Q 1356 3103 1142 2972 
Q 928 2841 928 2578 
Q 928 2378 1081 2264 
Q 1234 2150 1697 2047 
L 1894 2003 
Q 2506 1872 2764 1633 
Q 3022 1394 3022 966 
Q 3022 478 2636 193 
Q 2250 -91 1575 -91 
Q 1294 -91 989 -36 
Q 684 19 347 128 
L 347 722 
Q 666 556 975 473 
Q 1284 391 1588 391 
Q 1994 391 2212 530 
Q 2431 669 2431 922 
Q 2431 1156 2273 1281 
Q 2116 1406 1581 1522 
L 1381 1569 
Q 847 1681 609 1914 
Q 372 2147 372 2553 
Q 372 3047 722 3315 
Q 1072 3584 1716 3584 
Q 2034 3584 2315 3537 
Q 2597 3491 2834 3397 
z
" transform="scale(0.015625)"/>
        <path id="DejaVuSans-63" d="M 3122 3366 
L 3122 2828 
Q 2878 2963 2633 3030 
Q 2388 3097 2138 3097 
Q 1578 3097 1268 2742 
Q 959 2388 959 1747 
Q 959 1106 1268 751 
Q 1578 397 2138 397 
Q 2388 397 2633 464 
Q 2878 531 3122 666 
L 3122 134 
Q 2881 22 2623 -34 
Q 2366 -91 2075 -91 
Q 1284 -91 818 406 
Q 353 903 353 1747 
Q 353 2603 823 3093 
Q 1294 3584 2113 3584 
Q 2378 3584 2631 3529 
Q 2884 3475 3122 3366 
z
" transform="scale(0.015625)"/>
        <path id="DejaVuSans-69" d="M 603 3500 
L 1178 3500 
L 1178 0 
L 603 0 
L 603 3500 
z
M 603 4863 
L 1178 4863 
L 1178 4134 
L 603 4134 
L 603 4863 
z
" transform="scale(0.015625)"/>
        <path id="DejaVuSans-2d" d="M 313 2009 
L 1997 2009 
L 1997 1497 
L 313 1497 
L 313 2009 
z
" transform="scale(0.015625)"/>
        <path id="DejaVuSans-67" d="M 2906 1791 
Q 2906 2416 2648 2759 
Q 2391 3103 1925 3103 
Q 1463 3103 1205 2759 
Q 947 2416 947 1791 
Q 947 1169 1205 825 
Q 1463 481 1925 481 
Q 2391 481 2648 825 
Q 2906 1169 2906 1791 
z
M 3481 434 
Q 3481 -459 3084 -895 
Q 2688 -1331 1869 -1331 
Q 1566 -1331 1297 -1286 
Q 1028 -1241 775 -1147 
L 775 -588 
Q 1028 -725 1275 -790 
Q 1522 -856 1778 -856 
Q 2344 -856 2625 -561 
Q 2906 -266 2906 331 
L 2906 616 
Q 2728 306 2450 153 
Q 2172 0 1784 0 
Q 1141 0 747 490 
Q 353 981 353 1791 
Q 353 2603 747 3093 
Q 1141 3584 1784 3584 
Q 2172 3584 2450 3431 
Q 2728 3278 2906 2969 
L 2906 3500 
L 3481 3500 
L 3481 434 
z
" transform="scale(0.015625)"/>
        <path id="DejaVuSans-62" d="M 3116 1747 
Q 3116 2381 2855 2742 
Q 2594 3103 2138 3103 
Q 1681 3103 1420 2742 
Q 1159 2381 1159 1747 
Q 1159 1113 1420 752 
Q 1681 391 2138 391 
Q 2594 391 2855 752 
Q 3116 1113 3116 1747 
z
M 1159 2969 
Q 1341 3281 1617 3432 
Q 1894 3584 2278 3584 
Q 2916 3584 3314 3078 
Q 3713 2572 3713 1747 
Q 3713 922 3314 415 
Q 2916 -91 2278 -91 
Q 1894 -91 1617 61 
Q 1341 213 1159 525 
L 1159 0 
L 581 0 
L 581 4863 
L 1159 4863 
L 1159 2969 
z
" transform="scale(0.015625)"/>
        <path id="DejaVuSans-6c" d="M 603 4863 
L 1178 4863 
L 1178 0 
L 603 0 
L 603 4863 
z
" transform="scale(0.015625)"/>
        <path id="DejaVuSans-66" d="M 2375 4863 
L 2375 4384 
L 1825 4384 
Q 1516 4384 1395 4259 
Q 1275 4134 1275 3809 
L 1275 3500 
L 2222 3500 
L 2222 3053 
L 1275 3053 
L 1275 0 
L 697 0 
L 697 3053 
L 147 3053 
L 147 3500 
L 697 3500 
L 697 3744 
Q 697 4328 969 4595 
Q 1241 4863 1831 4863 
L 2375 4863 
z
" transform="scale(0.015625)"/>
       </defs>
       <use xlink:href="#DejaVuSans-2f"/>
       <use xlink:href="#DejaVuSans-2f" x="33.691406"/>
       <use xlink:href="#DejaVuSans-64" x="67.382812"/>
       <use xlink:href="#DejaVuSans-61" x="130.859375"/>
       <use xlink:href="#DejaVuSans-74" x="192.138672"/>
       <use xlink:href="#DejaVuSans-61" x="231.347656"/>
       <use xlink:href="#DejaVuSans-2e" x="292.626953"/>
       <use xlink:href="#DejaVuSans-65" x="324.414062"/>
       <use xlink:href="#DejaVuSans-75" x="385.9375"/>
       <use xlink:href="#DejaVuSans-72" x="449.316406"/>
       <use xlink:href="#DejaVuSans-6f" x="488.179688"/>
       <use xlink:href="#DejaVuSans-70" x="549.361328"/>
       <use xlink:href="#DejaVuSans-61" x="612.837891"/>
       <use xlink:href="#DejaVuSans-2e" x="674.117188"/>
       <use xlink:href="#DejaVuSans-65" x="705.904297"/>
       <use xlink:href="#DejaVuSans-75" x="767.427734"/>
       <use xlink:href="#DejaVuSans-2f" x="830.806641"/>
       <use xlink:href="#DejaVuSans-64" x="864.498047"/>
       <use xlink:href="#DejaVuSans-61" x="927.974609"/>
       <use xlink:href="#DejaVuSans-74" x="989.253906"/>
       <use xlink:href="#DejaVuSans-61" x="1028.462891"/>
       <use xlink:href="#DejaVuSans-2f" x="1089.742188"/>
       <use xlink:href="#DejaVuSans-64" x="1123.433594"/>
       <use xlink:href="#DejaVuSans-61" x="1186.910156"/>
       <use xlink:href="#DejaVuSans-74" x="1248.189453"/>
       <use xlink:href="#DejaVuSans-61" x="1287.398438"/>
       <use xlink:href="#DejaVuSans-73" x="1348.677734"/>
       <use xlink:href="#DejaVuSans-65" x="1400.777344"/>
       <use xlink:href="#DejaVuSans-74" x="1462.300781"/>
       <use xlink:href="#DejaVuSans-73" x="1501.509766"/>
       <use xlink:href="#DejaVuSans-2f" x="1553.609375"/>
       <use xlink:href="#DejaVuSans-63" x="1587.300781"/>
       <use xlink:href="#DejaVuSans-6f" x="1642.28125"/>
       <use xlink:href="#DejaVuSans-73" x="1703.462891"/>
       <use xlink:href="#DejaVuSans-6d" x="1755.5625"/>
       <use xlink:href="#DejaVuSans-65" x="1852.974609"/>
       <use xlink:href="#DejaVuSans-74" x="1914.498047"/>
       <use xlink:href="#DejaVuSans-69" x="1953.707031"/>
       <use xlink:href="#DejaVuSans-63" x="1981.490234"/>
       <use xlink:href="#DejaVuSans-2d" x="2036.470703"/>
       <use xlink:href="#DejaVuSans-69" x="2072.554688"/>
       <use xlink:href="#DejaVuSans-6e" x="2100.337891"/>
       <use xlink:href="#DejaVuSans-67" x="2163.716797"/>
       <use xlink:href="#DejaVuSans-72" x="2227.193359"/>
       <use xlink:href="#DejaVuSans-65" x="2266.056641"/>
       <use xlink:href="#DejaVuSans-64" x="2327.580078"/>
       <use xlink:href="#DejaVuSans-69" x="2391.056641"/>
       <use xlink:href="#DejaVuSans-65" x="2418.839844"/>
       <use xlink:href="#DejaVuSans-6e" x="2480.363281"/>
       <use xlink:href="#DejaVuSans-74" x="2543.742188"/>
       <use xlink:href="#DejaVuSans-2d" x="2582.951172"/>
       <use xlink:href="#DejaVuSans-64" x="2619.035156"/>
       <use xlink:href="#DejaVuSans-61" x="2682.511719"/>
       <use xlink:href="#DejaVuSans-74" x="2743.791016"/>
       <use xlink:href="#DejaVuSans-61" x="2783"/>
       <use xlink:href="#DejaVuSans-62" x="2844.279297"/>
       <use xlink:href="#DejaVuSans-61" x="2907.755859"/>
       <use xlink:href="#DejaVuSans-73" x="2969.035156"/>
       <use xlink:href="#DejaVuSans-65" x="3021.134766"/>
       <use xlink:href="#DejaVuSans-2d" x="3082.658203"/>
       <use xlink:href="#DejaVuSans-32" x="3118.742188"/>
       <use xlink:href="#DejaVuSans-2d" x="3182.365234"/>
       <use xlink:href="#DejaVuSans-6c" x="3218.449219"/>
       <use xlink:href="#DejaVuSans-69" x="3246.232422"/>
       <use xlink:href="#DejaVuSans-73" x="3274.015625"/>
       <use xlink:href="#DejaVuSans-74" x="3326.115234"/>
       <use xlink:href="#DejaVuSans-2d" x="3365.324219"/>
       <use xlink:href="#DejaVuSans-6f" x="3403.283203"/>
       <use xlink:href="#DejaVuSans-66" x="3464.464844"/>
       <use xlink:href="#DejaVuSans-2d" x="3494.169922"/>
       <use xlink:href="#DejaVuSans-73" x="3530.253906"/>
       <use xlink:href="#DejaVuSans-75" x="3582.353516"/>
       <use xlink:href="#DejaVuSans-62" x="3645.732422"/>
       <use xlink:href="#DejaVuSans-73" x="3709.208984"/>
       <use xlink:href="#DejaVuSans-74" x="3761.308594"/>
       <use xlink:href="#DejaVuSans-61" x="3800.517578"/>
       <use xlink:href="#DejaVuSans-6e" x="3861.796875"/>
       <use xlink:href="#DejaVuSans-63" x="3925.175781"/>
       <use xlink:href="#DejaVuSans-65" x="3980.15625"/>
       <use xlink:href="#DejaVuSans-73" x="4041.679688"/>
       <use xlink:href="#DejaVuSans-2d" x="4093.779297"/>
       <use xlink:href="#DejaVuSans-70" x="4129.863281"/>
       <use xlink:href="#DejaVuSans-72" x="4193.339844"/>
       <use xlink:href="#DejaVuSans-6f" x="4232.203125"/>
       <use xlink:href="#DejaVuSans-68" x="4293.384766"/>
       <use xlink:href="#DejaVuSans-69" x="4356.763672"/>
       <use xlink:href="#DejaVuSans-62" x="4384.546875"/>
       <use xlink:href="#DejaVuSans-69" x="4448.023438"/>
       <use xlink:href="#DejaVuSans-74" x="4475.806641"/>
       <use xlink:href="#DejaVuSans-65" x="4515.015625"/>
       <use xlink:href="#DejaVuSans-64" x="4576.539062"/>
       <use xlink:href="#DejaVuSans-2d" x="4640.015625"/>
       <use xlink:href="#DejaVuSans-69" x="4676.099609"/>
       <use xlink:href="#DejaVuSans-6e" x="4703.882812"/>
       <use xlink:href="#DejaVuSans-2d" x="4767.261719"/>
       <use xlink:href="#DejaVuSans-63" x="4803.345703"/>
       <use xlink:href="#DejaVuSans-6f" x="4858.326172"/>
       <use xlink:href="#DejaVuSans-73" x="4919.507812"/>
       <use xlink:href="#DejaVuSans-6d" x="4971.607422"/>
       <use xlink:href="#DejaVuSans-65" x="5069.019531"/>
       <use xlink:href="#DejaVuSans-74" x="5130.542969"/>
       <use xlink:href="#DejaVuSans-69" x="5169.751953"/>
       <use xlink:href="#DejaVuSans-63" x="5197.535156"/>
       <use xlink:href="#DejaVuSans-2d" x="5252.515625"/>
       <use xlink:href="#DejaVuSans-70" x="5288.599609"/>
       <use xlink:href="#DejaVuSans-72" x="5352.076172"/>
       <use xlink:href="#DejaVuSans-6f" x="5390.939453"/>
       <use xlink:href="#DejaVuSans-64" x="5452.121094"/>
       <use xlink:href="#DejaVuSans-75" x="5515.597656"/>
       <use xlink:href="#DejaVuSans-63" x="5578.976562"/>
       <use xlink:href="#DejaVuSans-74" x="5633.957031"/>
       <use xlink:href="#DejaVuSans-73" x="5673.166016"/>
      </g>
     </g>
    </g>
    <g id="ytick_4">
     <g id="line2d_11">
      <g>
       <use xlink:href="#md3e082d4e5" x="96.768" y="88.0416" style="stroke: #000000; stroke-width: 0.8"/>
      </g>
     </g>
     <g id="text_12">
      <!-- locale=en -->
      <g transform="translate(39.443 91.840819)scale(0.1 -0.1)">
       <defs>
        <path id="DejaVuSans-3d" d="M 678 2906 
L 4684 2906 
L 4684 2381 
L 678 2381 
L 678 2906 
z
M 678 1631 
L 4684 1631 
L 4684 1100 
L 678 1100 
L 678 1631 
z
" transform="scale(0.015625)"/>
       </defs>
       <use xlink:href="#DejaVuSans-6c"/>
       <use xlink:href="#DejaVuSans-6f" x="27.783203"/>
       <use xlink:href="#DejaVuSans-63" x="88.964844"/>
       <use xlink:href="#DejaVuSans-61" x="143.945312"/>
       <use xlink:href="#DejaVuSans-6c" x="205.224609"/>
       <use xlink:href="#DejaVuSans-65" x="233.007812"/>
       <use xlink:href="#DejaVuSans-3d" x="294.53125"/>
       <use xlink:href="#DejaVuSans-65" x="378.320312"/>
       <use xlink:href="#DejaVuSans-6e" x="439.84375"/>
      </g>
     </g>
    </g>
    <g id="ytick_5">
     <g id="line2d_12">
      <g>
       <use xlink:href="#md3e082d4e5" x="96.768" y="101.3472" style="stroke: #000000; stroke-width: 0.8"/>
      </g>
     </g>
     <g id="text_13">
      <!-- x200b -->
      <g transform="translate(58.413313 105.146419)scale(0.1 -0.1)">
       <defs>
        <path id="DejaVuSans-78" d="M 3513 3500 
L 2247 1797 
L 3578 0 
L 2900 0 
L 1881 1375 
L 863 0 
L 184 0 
L 1544 1831 
L 300 3500 
L 978 3500 
L 1906 2253 
L 2834 3500 
L 3513 3500 
z
" transform="scale(0.015625)"/>
       </defs>
       <use xlink:href="#DejaVuSans-78"/>
       <use xlink:href="#DejaVuSans-32" x="59.179688"/>
       <use xlink:href="#DejaVuSans-30" x="122.802734"/>
       <use xlink:href="#DejaVuSans-30" x="186.425781"/>
       <use xlink:href="#DejaVuSans-62" x="250.048828"/>
      </g>
     </g>
    </g>
    <g id="ytick_6">
     <g id="line2d_13">
      <g>
       <use xlink:href="#md3e082d4e5" x="96.768" y="114.6528" style="stroke: #000000; stroke-width: 0.8"/>
      </g>
     </g>
     <g id="text_14">
      <!-- que -->
      <g transform="translate(70.928938 118.452019)scale(0.1 -0.1)">
       <defs>
        <path id="DejaVuSans-71" d="M 947 1747 
Q 947 1113 1208 752 
Q 1469 391 1925 391 
Q 2381 391 2643 752 
Q 2906 1113 2906 1747 
Q 2906 2381 2643 2742 
Q 2381 3103 1925 3103 
Q 1469 3103 1208 2742 
Q 947 2381 947 1747 
z
M 2906 525 
Q 2725 213 2448 61 
Q 2172 -91 1784 -91 
Q 1150 -91 751 415 
Q 353 922 353 1747 
Q 353 2572 751 3078 
Q 1150 3584 1784 3584 
Q 2172 3584 2448 3432 
Q 2725 3281 2906 2969 
L 2906 3500 
L 3481 3500 
L 3481 -1331 
L 2906 -1331 
L 2906 525 
z
" transform="scale(0.015625)"/>
       </defs>
       <use xlink:href="#DejaVuSans-71"/>
       <use xlink:href="#DejaVuSans-75" x="63.476562"/>
       <use xlink:href="#DejaVuSans-65" x="126.855469"/>
      </g>
     </g>
    </g>
    <g id="ytick_7">
     <g id="line2d_14">
      <g>
       <use xlink:href="#md3e082d4e5" x="96.768" y="127.9584" style="stroke: #000000; stroke-width: 0.8"/>
      </g>
     </g>
     <g id="text_15">
      <!-- datasets -->
      <g transform="translate(46.750812 131.757619)scale(0.1 -0.1)">
       <use xlink:href="#DejaVuSans-64"/>
       <use xlink:href="#DejaVuSans-61" x="63.476562"/>
       <use xlink:href="#DejaVuSans-74" x="124.755859"/>
       <use xlink:href="#DejaVuSans-61" x="163.964844"/>
       <use xlink:href="#DejaVuSans-73" x="225.244141"/>
       <use xlink:href="#DejaVuSans-65" x="277.34375"/>
       <use xlink:href="#DejaVuSans-74" x="338.867188"/>
       <use xlink:href="#DejaVuSans-73" x="378.076172"/>
      </g>
     </g>
    </g>
    <g id="ytick_8">
     <g id="line2d_15">
      <g>
       <use xlink:href="#md3e082d4e5" x="96.768" y="141.264" style="stroke: #000000; stroke-width: 0.8"/>
      </g>
     </g>
     <g id="text_16">
      <!-- erasmus -->
      <g transform="translate(46.878937 145.063219)scale(0.1 -0.1)">
       <use xlink:href="#DejaVuSans-65"/>
       <use xlink:href="#DejaVuSans-72" x="61.523438"/>
       <use xlink:href="#DejaVuSans-61" x="102.636719"/>
       <use xlink:href="#DejaVuSans-73" x="163.916016"/>
       <use xlink:href="#DejaVuSans-6d" x="216.015625"/>
       <use xlink:href="#DejaVuSans-75" x="313.427734"/>
       <use xlink:href="#DejaVuSans-73" x="376.806641"/>
      </g>
     </g>
    </g>
    <g id="ytick_9">
     <g id="line2d_16">
      <g>
       <use xlink:href="#md3e082d4e5" x="96.768" y="154.5696" style="stroke: #000000; stroke-width: 0.8"/>
      </g>
     </g>
     <g id="text_17">
      <!-- não -->
      <g transform="translate(71.183625 158.368819)scale(0.1 -0.1)">
       <defs>
        <path id="DejaVuSans-e3" d="M 2194 1759 
Q 1497 1759 1228 1600 
Q 959 1441 959 1056 
Q 959 750 1161 570 
Q 1363 391 1709 391 
Q 2188 391 2477 730 
Q 2766 1069 2766 1631 
L 2766 1759 
L 2194 1759 
z
M 3341 1997 
L 3341 0 
L 2766 0 
L 2766 531 
Q 2569 213 2275 61 
Q 1981 -91 1556 -91 
Q 1019 -91 701 211 
Q 384 513 384 1019 
Q 384 1609 779 1909 
Q 1175 2209 1959 2209 
L 2766 2209 
L 2766 2266 
Q 2766 2663 2505 2880 
Q 2244 3097 1772 3097 
Q 1472 3097 1187 3025 
Q 903 2953 641 2809 
L 641 3341 
Q 956 3463 1253 3523 
Q 1550 3584 1831 3584 
Q 2591 3584 2966 3190 
Q 3341 2797 3341 1997 
z
M 1844 4281 
L 1665 4453 
Q 1597 4516 1545 4545 
Q 1494 4575 1453 4575 
Q 1334 4575 1278 4461 
Q 1222 4347 1215 4091 
L 825 4091 
Q 831 4513 990 4742 
Q 1150 4972 1434 4972 
Q 1553 4972 1653 4928 
Q 1753 4884 1869 4781 
L 2047 4609 
Q 2115 4547 2167 4517 
Q 2219 4488 2259 4488 
Q 2378 4488 2434 4602 
Q 2490 4716 2497 4972 
L 2887 4972 
Q 2881 4550 2721 4320 
Q 2562 4091 2278 4091 
Q 2159 4091 2059 4134 
Q 1959 4178 1844 4281 
z
" transform="scale(0.015625)"/>
       </defs>
       <use xlink:href="#DejaVuSans-6e"/>
       <use xlink:href="#DejaVuSans-e3" x="63.378906"/>
       <use xlink:href="#DejaVuSans-6f" x="124.658203"/>
      </g>
     </g>
    </g>
    <g id="ytick_10">
     <g id="line2d_17">
      <g>
       <use xlink:href="#md3e082d4e5" x="96.768" y="167.8752" style="stroke: #000000; stroke-width: 0.8"/>
      </g>
     </g>
     <g id="text_18">
      <!-- student -->
      <g transform="translate(51.541438 171.674419)scale(0.1 -0.1)">
       <use xlink:href="#DejaVuSans-73"/>
       <use xlink:href="#DejaVuSans-74" x="52.099609"/>
       <use xlink:href="#DejaVuSans-75" x="91.308594"/>
       <use xlink:href="#DejaVuSans-64" x="154.6875"/>
       <use xlink:href="#DejaVuSans-65" x="218.164062"/>
       <use xlink:href="#DejaVuSans-6e" x="279.6875"/>
       <use xlink:href="#DejaVuSans-74" x="343.066406"/>
      </g>
     </g>
    </g>
    <g id="ytick_11">
     <g id="line2d_18">
      <g>
       <use xlink:href="#md3e082d4e5" x="96.768" y="181.1808" style="stroke: #000000; stroke-width: 0.8"/>
      </g>
     </g>
     <g id="text_19">
      <!-- amp -->
      <g transform="translate(67.550813 184.980019)scale(0.1 -0.1)">
       <use xlink:href="#DejaVuSans-61"/>
       <use xlink:href="#DejaVuSans-6d" x="61.279297"/>
       <use xlink:href="#DejaVuSans-70" x="158.691406"/>
      </g>
     </g>
    </g>
    <g id="ytick_12">
     <g id="line2d_19">
      <g>
       <use xlink:href="#md3e082d4e5" x="96.768" y="194.4864" style="stroke: #000000; stroke-width: 0.8"/>
      </g>
     </g>
     <g id="text_20">
      <!-- para -->
      <g transform="translate(67.052375 198.285619)scale(0.1 -0.1)">
       <use xlink:href="#DejaVuSans-70"/>
       <use xlink:href="#DejaVuSans-61" x="63.476562"/>
       <use xlink:href="#DejaVuSans-72" x="124.755859"/>
       <use xlink:href="#DejaVuSans-61" x="165.869141"/>
      </g>
     </g>
    </g>
    <g id="ytick_13">
     <g id="line2d_20">
      <g>
       <use xlink:href="#md3e082d4e5" x="96.768" y="207.792" style="stroke: #000000; stroke-width: 0.8"/>
      </g>
     </g>
     <g id="text_21">
      <!-- study -->
      <g transform="translate(62.033625 211.591219)scale(0.1 -0.1)">
       <defs>
        <path id="DejaVuSans-79" d="M 2059 -325 
Q 1816 -950 1584 -1140 
Q 1353 -1331 966 -1331 
L 506 -1331 
L 506 -850 
L 844 -850 
Q 1081 -850 1212 -737 
Q 1344 -625 1503 -206 
L 1606 56 
L 191 3500 
L 800 3500 
L 1894 763 
L 2988 3500 
L 3597 3500 
L 2059 -325 
z
" transform="scale(0.015625)"/>
       </defs>
       <use xlink:href="#DejaVuSans-73"/>
       <use xlink:href="#DejaVuSans-74" x="52.099609"/>
       <use xlink:href="#DejaVuSans-75" x="91.308594"/>
       <use xlink:href="#DejaVuSans-64" x="154.6875"/>
       <use xlink:href="#DejaVuSans-79" x="218.164062"/>
      </g>
     </g>
    </g>
    <g id="ytick_14">
     <g id="line2d_21">
      <g>
       <use xlink:href="#md3e082d4e5" x="96.768" y="221.0976" style="stroke: #000000; stroke-width: 0.8"/>
      </g>
     </g>
     <g id="text_22">
      <!-- mobility -->
      <g transform="translate(49.38675 224.896819)scale(0.1 -0.1)">
       <use xlink:href="#DejaVuSans-6d"/>
       <use xlink:href="#DejaVuSans-6f" x="97.412109"/>
       <use xlink:href="#DejaVuSans-62" x="158.59375"/>
       <use xlink:href="#DejaVuSans-69" x="222.070312"/>
       <use xlink:href="#DejaVuSans-6c" x="249.853516"/>
       <use xlink:href="#DejaVuSans-69" x="277.636719"/>
       <use xlink:href="#DejaVuSans-74" x="305.419922"/>
       <use xlink:href="#DejaVuSans-79" x="344.628906"/>
      </g>
     </g>
    </g>
    <g id="ytick_15">
     <g id="line2d_22">
      <g>
       <use xlink:href="#md3e082d4e5" x="96.768" y="234.4032" style="stroke: #000000; stroke-width: 0.8"/>
      </g>
     </g>
     <g id="text_23">
      <!-- consentimento -->
      <g transform="translate(15.144562 238.202419)scale(0.1 -0.1)">
       <use xlink:href="#DejaVuSans-63"/>
       <use xlink:href="#DejaVuSans-6f" x="54.980469"/>
       <use xlink:href="#DejaVuSans-6e" x="116.162109"/>
       <use xlink:href="#DejaVuSans-73" x="179.541016"/>
       <use xlink:href="#DejaVuSans-65" x="231.640625"/>
       <use xlink:href="#DejaVuSans-6e" x="293.164062"/>
       <use xlink:href="#DejaVuSans-74" x="356.542969"/>
       <use xlink:href="#DejaVuSans-69" x="395.751953"/>
       <use xlink:href="#DejaVuSans-6d" x="423.535156"/>
       <use xlink:href="#DejaVuSans-65" x="520.947266"/>
       <use xlink:href="#DejaVuSans-6e" x="582.470703"/>
       <use xlink:href="#DejaVuSans-74" x="645.849609"/>
       <use xlink:href="#DejaVuSans-6f" x="685.058594"/>
      </g>
     </g>
    </g>
    <g id="ytick_16">
     <g id="line2d_23">
      <g>
       <use xlink:href="#md3e082d4e5" x="96.768" y="247.7088" style="stroke: #000000; stroke-width: 0.8"/>
      </g>
     </g>
     <g id="text_24">
      <!-- learning -->
      <g transform="translate(48.971125 251.508019)scale(0.1 -0.1)">
       <use xlink:href="#DejaVuSans-6c"/>
       <use xlink:href="#DejaVuSans-65" x="27.783203"/>
       <use xlink:href="#DejaVuSans-61" x="89.306641"/>
       <use xlink:href="#DejaVuSans-72" x="150.585938"/>
       <use xlink:href="#DejaVuSans-6e" x="189.949219"/>
       <use xlink:href="#DejaVuSans-69" x="253.328125"/>
       <use xlink:href="#DejaVuSans-6e" x="281.111328"/>
       <use xlink:href="#DejaVuSans-67" x="344.490234"/>
      </g>
     </g>
    </g>
    <g id="ytick_17">
     <g id="line2d_24">
      <g>
       <use xlink:href="#md3e082d4e5" x="96.768" y="261.0144" style="stroke: #000000; stroke-width: 0.8"/>
      </g>
     </g>
     <g id="text_25">
      <!-- program -->
      <g transform="translate(47.08675 264.813619)scale(0.1 -0.1)">
       <use xlink:href="#DejaVuSans-70"/>
       <use xlink:href="#DejaVuSans-72" x="63.476562"/>
       <use xlink:href="#DejaVuSans-6f" x="102.339844"/>
       <use xlink:href="#DejaVuSans-67" x="163.521484"/>
       <use xlink:href="#DejaVuSans-72" x="226.998047"/>
       <use xlink:href="#DejaVuSans-61" x="268.111328"/>
       <use xlink:href="#DejaVuSans-6d" x="329.390625"/>
      </g>
     </g>
    </g>
    <g id="ytick_18">
     <g id="line2d_25">
      <g>
       <use xlink:href="#md3e082d4e5" x="96.768" y="274.32" style="stroke: #000000; stroke-width: 0.8"/>
      </g>
     </g>
     <g id="text_26">
      <!-- factor -->
      <g transform="translate(60.471125 278.119219)scale(0.1 -0.1)">
       <use xlink:href="#DejaVuSans-66"/>
       <use xlink:href="#DejaVuSans-61" x="35.205078"/>
       <use xlink:href="#DejaVuSans-63" x="96.484375"/>
       <use xlink:href="#DejaVuSans-74" x="151.464844"/>
       <use xlink:href="#DejaVuSans-6f" x="190.673828"/>
       <use xlink:href="#DejaVuSans-72" x="251.855469"/>
      </g>
     </g>
    </g>
    <g id="ytick_19">
     <g id="line2d_26">
      <g>
       <use xlink:href="#md3e082d4e5" x="96.768" y="287.6256" style="stroke: #000000; stroke-width: 0.8"/>
      </g>
     </g>
     <g id="text_27">
      <!-- sexual -->
      <g transform="translate(57.418 291.424819)scale(0.1 -0.1)">
       <use xlink:href="#DejaVuSans-73"/>
       <use xlink:href="#DejaVuSans-65" x="52.099609"/>
       <use xlink:href="#DejaVuSans-78" x="111.873047"/>
       <use xlink:href="#DejaVuSans-75" x="171.052734"/>
       <use xlink:href="#DejaVuSans-61" x="234.431641"/>
       <use xlink:href="#DejaVuSans-6c" x="295.710938"/>
      </g>
     </g>
    </g>
    <g id="ytick_20">
     <g id="line2d_27">
      <g>
       <use xlink:href="#md3e082d4e5" x="96.768" y="300.9312" style="stroke: #000000; stroke-width: 0.8"/>
      </g>
     </g>
     <g id="text_28">
      <!-- relação -->
      <g transform="translate(53.077375 304.739794)scale(0.1 -0.1)">
       <defs>
        <path id="DejaVuSans-e7" d="M 3122 3366 
L 3122 2828 
Q 2878 2963 2633 3030 
Q 2388 3097 2138 3097 
Q 1578 3097 1268 2742 
Q 959 2388 959 1747 
Q 959 1106 1268 751 
Q 1578 397 2138 397 
Q 2388 397 2633 464 
Q 2878 531 3122 666 
L 3122 134 
Q 2881 22 2623 -34 
Q 2366 -91 2075 -91 
Q 1284 -91 818 406 
Q 353 903 353 1747 
Q 353 2603 823 3093 
Q 1294 3584 2113 3584 
Q 2378 3584 2631 3529 
Q 2884 3475 3122 3366 
z
M 2311 0 
Q 2482 -194 2566 -358 
Q 2651 -522 2651 -672 
Q 2651 -950 2463 -1092 
Q 2276 -1234 1907 -1234 
Q 1764 -1234 1628 -1215 
Q 1492 -1197 1357 -1159 
L 1357 -750 
Q 1464 -803 1579 -826 
Q 1695 -850 1842 -850 
Q 2026 -850 2120 -775 
Q 2214 -700 2214 -556 
Q 2214 -463 2146 -327 
Q 2079 -191 1939 0 
L 2311 0 
z
" transform="scale(0.015625)"/>
       </defs>
       <use xlink:href="#DejaVuSans-72"/>
       <use xlink:href="#DejaVuSans-65" x="38.863281"/>
       <use xlink:href="#DejaVuSans-6c" x="100.386719"/>
       <use xlink:href="#DejaVuSans-61" x="128.169922"/>
       <use xlink:href="#DejaVuSans-e7" x="189.449219"/>
       <use xlink:href="#DejaVuSans-e3" x="244.429688"/>
       <use xlink:href="#DejaVuSans-6f" x="305.708984"/>
      </g>
     </g>
    </g>
    <g id="text_29">
     <!-- keywords -->
     <g transform="translate(-488.835125 198.173313)rotate(-90)scale(0.1 -0.1)">
      <defs>
       <path id="DejaVuSans-6b" d="M 581 4863 
L 1159 4863 
L 1159 1991 
L 2875 3500 
L 3609 3500 
L 1753 1863 
L 3688 0 
L 2938 0 
L 1159 1709 
L 1159 0 
L 581 0 
L 581 4863 
z
" transform="scale(0.015625)"/>
       <path id="DejaVuSans-77" d="M 269 3500 
L 844 3500 
L 1563 769 
L 2278 3500 
L 2956 3500 
L 3675 769 
L 4391 3500 
L 4966 3500 
L 4050 0 
L 3372 0 
L 2619 2869 
L 1863 0 
L 1184 0 
L 269 3500 
z
" transform="scale(0.015625)"/>
      </defs>
      <use xlink:href="#DejaVuSans-6b"/>
      <use xlink:href="#DejaVuSans-65" x="54.285156"/>
      <use xlink:href="#DejaVuSans-79" x="115.808594"/>
      <use xlink:href="#DejaVuSans-77" x="174.988281"/>
      <use xlink:href="#DejaVuSans-6f" x="256.775391"/>
      <use xlink:href="#DejaVuSans-72" x="317.957031"/>
      <use xlink:href="#DejaVuSans-64" x="357.320312"/>
      <use xlink:href="#DejaVuSans-73" x="420.796875"/>
     </g>
    </g>
   </g>
   <g id="line2d_28">
    <path clip-path="url(#pf8a9dc7a94)" style="fill: none; stroke: #424242; stroke-width: 2.7; stroke-linecap: square"/>
   </g>
   <g id="line2d_29">
    <path clip-path="url(#pf8a9dc7a94)" style="fill: none; stroke: #424242; stroke-width: 2.7; stroke-linecap: square"/>
   </g>
   <g id="line2d_30">
    <path clip-path="url(#pf8a9dc7a94)" style="fill: none; stroke: #424242; stroke-width: 2.7; stroke-linecap: square"/>
   </g>
   <g id="line2d_31">
    <path clip-path="url(#pf8a9dc7a94)" style="fill: none; stroke: #424242; stroke-width: 2.7; stroke-linecap: square"/>
   </g>
   <g id="line2d_32">
    <path clip-path="url(#pf8a9dc7a94)" style="fill: none; stroke: #424242; stroke-width: 2.7; stroke-linecap: square"/>
   </g>
   <g id="line2d_33">
    <path clip-path="url(#pf8a9dc7a94)" style="fill: none; stroke: #424242; stroke-width: 2.7; stroke-linecap: square"/>
   </g>
   <g id="line2d_34">
    <path clip-path="url(#pf8a9dc7a94)" style="fill: none; stroke: #424242; stroke-width: 2.7; stroke-linecap: square"/>
   </g>
   <g id="line2d_35">
    <path clip-path="url(#pf8a9dc7a94)" style="fill: none; stroke: #424242; stroke-width: 2.7; stroke-linecap: square"/>
   </g>
   <g id="line2d_36">
    <path clip-path="url(#pf8a9dc7a94)" style="fill: none; stroke: #424242; stroke-width: 2.7; stroke-linecap: square"/>
   </g>
   <g id="line2d_37">
    <path clip-path="url(#pf8a9dc7a94)" style="fill: none; stroke: #424242; stroke-width: 2.7; stroke-linecap: square"/>
   </g>
   <g id="line2d_38">
    <path clip-path="url(#pf8a9dc7a94)" style="fill: none; stroke: #424242; stroke-width: 2.7; stroke-linecap: square"/>
   </g>
   <g id="line2d_39">
    <path clip-path="url(#pf8a9dc7a94)" style="fill: none; stroke: #424242; stroke-width: 2.7; stroke-linecap: square"/>
   </g>
   <g id="line2d_40">
    <path clip-path="url(#pf8a9dc7a94)" style="fill: none; stroke: #424242; stroke-width: 2.7; stroke-linecap: square"/>
   </g>
   <g id="line2d_41">
    <path clip-path="url(#pf8a9dc7a94)" style="fill: none; stroke: #424242; stroke-width: 2.7; stroke-linecap: square"/>
   </g>
   <g id="line2d_42">
    <path clip-path="url(#pf8a9dc7a94)" style="fill: none; stroke: #424242; stroke-width: 2.7; stroke-linecap: square"/>
   </g>
   <g id="line2d_43">
    <path clip-path="url(#pf8a9dc7a94)" style="fill: none; stroke: #424242; stroke-width: 2.7; stroke-linecap: square"/>
   </g>
   <g id="line2d_44">
    <path clip-path="url(#pf8a9dc7a94)" style="fill: none; stroke: #424242; stroke-width: 2.7; stroke-linecap: square"/>
   </g>
   <g id="line2d_45">
    <path clip-path="url(#pf8a9dc7a94)" style="fill: none; stroke: #424242; stroke-width: 2.7; stroke-linecap: square"/>
   </g>
   <g id="line2d_46">
    <path clip-path="url(#pf8a9dc7a94)" style="fill: none; stroke: #424242; stroke-width: 2.7; stroke-linecap: square"/>
   </g>
   <g id="line2d_47">
    <path clip-path="url(#pf8a9dc7a94)" style="fill: none; stroke: #424242; stroke-width: 2.7; stroke-linecap: square"/>
   </g>
   <g id="patch_23">
    <path d="M 96.768 307.584 
L 96.768 41.472 
" style="fill: none; stroke: #000000; stroke-width: 0.8; stroke-linejoin: miter; stroke-linecap: square"/>
   </g>
   <g id="patch_24">
    <path d="M 414.72 307.584 
L 414.72 41.472 
" style="fill: none; stroke: #000000; stroke-width: 0.8; stroke-linejoin: miter; stroke-linecap: square"/>
   </g>
   <g id="patch_25">
    <path d="M 96.768 307.584 
L 414.72 307.584 
" style="fill: none; stroke: #000000; stroke-width: 0.8; stroke-linejoin: miter; stroke-linecap: square"/>
   </g>
   <g id="patch_26">
    <path d="M 96.768 41.472 
L 414.72 41.472 
" style="fill: none; stroke: #000000; stroke-width: 0.8; stroke-linejoin: miter; stroke-linecap: square"/>
   </g>
  </g>
 </g>
 <defs>
  <clipPath id="pf8a9dc7a94">
   <rect x="96.768" y="41.472" width="317.952" height="266.112"/>
  </clipPath>
 </defs>
</svg>
